<?xml version="1.0" encoding="UTF-8" standalone="no"?>
<!DOCTYPE svg PUBLIC "-//W3C//DTD SVG 1.1//EN"
 "http://www.w3.org/Graphics/SVG/1.1/DTD/svg11.dtd">
<!-- Generated by graphviz version 2.44.0 (0)
 -->
<!-- Title: FST Pages: 1 -->
<svg width="612pt" height="248pt"
 viewBox="0.00 0.00 612.00 247.52" xmlns="http://www.w3.org/2000/svg" xmlns:xlink="http://www.w3.org/1999/xlink">
<g id="graph0" class="graph" transform="scale(0.69 0.69) rotate(0) translate(4 355.75)">
<title>FST</title>
<polygon fill="white" stroke="transparent" points="-4,4 -4,-355.75 885.5,-355.75 885.5,4 -4,4"/>
<!-- 0 -->
<g id="node1" class="node">
<title>0</title>
<ellipse fill="none" stroke="black" stroke-width="2" cx="18" cy="-217" rx="18" ry="18"/>
<text text-anchor="middle" x="18" y="-213.3" font-family="Times-Roman" font-size="14.00">0</text>
</g>
<!-- 1 -->
<g id="node2" class="node">
<title>1</title>
<ellipse fill="none" stroke="black" cx="106" cy="-217" rx="18" ry="18"/>
<text text-anchor="middle" x="106" y="-213.3" font-family="Times-Roman" font-size="14.00">1</text>
</g>
<!-- 0&#45;&gt;1 -->
<g id="edge1" class="edge">
<title>0&#45;&gt;1</title>
<path fill="none" stroke="black" d="M36.4,-217C48.25,-217 64.18,-217 77.71,-217"/>
<polygon fill="black" stroke="black" points="77.92,-220.5 87.92,-217 77.92,-213.5 77.92,-220.5"/>
<text text-anchor="middle" x="62" y="-220.8" font-family="Times-Roman" font-size="14.00">a:a</text>
</g>
<!-- 5 -->
<g id="node3" class="node">
<title>5</title>
<ellipse fill="none" stroke="black" cx="256" cy="-324" rx="18" ry="18"/>
<text text-anchor="middle" x="256" y="-320.3" font-family="Times-Roman" font-size="14.00">5</text>
</g>
<!-- 1&#45;&gt;5 -->
<g id="edge2" class="edge">
<title>1&#45;&gt;5</title>
<path fill="none" stroke="black" d="M110,-234.76C113.81,-251.84 122.05,-277.19 139,-292 163.77,-313.66 201.97,-320.78 227.7,-323.05"/>
<polygon fill="black" stroke="black" points="227.67,-326.56 237.89,-323.76 228.15,-319.57 227.67,-326.56"/>
<text text-anchor="middle" x="181" y="-325.8" font-family="Times-Roman" font-size="14.00">&lt;epsilon&gt;:f</text>
</g>
<!-- 2 -->
<g id="node4" class="node">
<title>2</title>
<ellipse fill="none" stroke="black" cx="859.5" cy="-215" rx="18" ry="18"/>
<ellipse fill="none" stroke="black" cx="859.5" cy="-215" rx="22" ry="22"/>
<text text-anchor="middle" x="859.5" y="-211.3" font-family="Times-Roman" font-size="14.00">2</text>
</g>
<!-- 1&#45;&gt;2 -->
<g id="edge3" class="edge">
<title>1&#45;&gt;2</title>
<path fill="none" stroke="black" d="M121.31,-227.35C146.84,-244.75 202.47,-278 255,-278 255,-278 255,-278 763.75,-278 793.13,-278 820.36,-256.73 838.01,-238.91"/>
<polygon fill="black" stroke="black" points="840.64,-241.22 844.97,-231.55 835.56,-236.41 840.64,-241.22"/>
<text text-anchor="middle" x="531" y="-281.8" font-family="Times-Roman" font-size="14.00">a:a</text>
</g>
<!-- 3 -->
<g id="node5" class="node">
<title>3</title>
<ellipse fill="none" stroke="black" cx="331.5" cy="-212" rx="18" ry="18"/>
<text text-anchor="middle" x="331.5" y="-208.3" font-family="Times-Roman" font-size="14.00">3</text>
</g>
<!-- 1&#45;&gt;3 -->
<g id="edge4" class="edge">
<title>1&#45;&gt;3</title>
<path fill="none" stroke="black" d="M124.17,-216.62C162.68,-215.75 256.26,-213.66 302.99,-212.62"/>
<polygon fill="black" stroke="black" points="303.36,-216.11 313.27,-212.39 303.2,-209.11 303.36,-216.11"/>
<text text-anchor="middle" x="181" y="-219.8" font-family="Times-Roman" font-size="14.00">b:x</text>
</g>
<!-- 6 -->
<g id="node6" class="node">
<title>6</title>
<ellipse fill="none" stroke="black" cx="762.75" cy="-156" rx="18" ry="18"/>
<text text-anchor="middle" x="762.75" y="-152.3" font-family="Times-Roman" font-size="14.00">6</text>
</g>
<!-- 1&#45;&gt;6 -->
<g id="edge5" class="edge">
<title>1&#45;&gt;6</title>
<path fill="none" stroke="black" d="M123.08,-210.03C149.89,-199.06 205.66,-179 255,-179 255,-179 255,-179 606,-179 659.25,-179 672.59,-174.46 725,-165 728.3,-164.4 731.74,-163.69 735.14,-162.93"/>
<polygon fill="black" stroke="black" points="736.1,-166.29 745.01,-160.56 734.47,-159.49 736.1,-166.29"/>
<text text-anchor="middle" x="432" y="-182.8" font-family="Times-Roman" font-size="14.00">c:&lt;epsilon&gt;</text>
</g>
<!-- 4 -->
<g id="node7" class="node">
<title>4</title>
<ellipse fill="none" stroke="black" cx="605" cy="-100" rx="18" ry="18"/>
<text text-anchor="middle" x="605" y="-96.3" font-family="Times-Roman" font-size="14.00">4</text>
</g>
<!-- 1&#45;&gt;4 -->
<g id="edge6" class="edge">
<title>1&#45;&gt;4</title>
<path fill="none" stroke="black" d="M112.89,-200.15C117.93,-188.33 126.4,-173.24 139,-165 281.41,-71.9 500.73,-87.41 576.86,-96.31"/>
<polygon fill="black" stroke="black" points="576.68,-99.81 587.03,-97.56 577.53,-92.86 576.68,-99.81"/>
<text text-anchor="middle" x="331.5" y="-109.8" font-family="Times-Roman" font-size="14.00">c:y</text>
</g>
<!-- 8 -->
<g id="node9" class="node">
<title>8</title>
<ellipse fill="none" stroke="black" cx="432" cy="-325" rx="18" ry="18"/>
<text text-anchor="middle" x="432" y="-321.3" font-family="Times-Roman" font-size="14.00">8</text>
</g>
<!-- 5&#45;&gt;8 -->
<g id="edge13" class="edge">
<title>5&#45;&gt;8</title>
<path fill="none" stroke="black" d="M274,-324.1C304.15,-324.27 367.21,-324.63 403.57,-324.84"/>
<polygon fill="black" stroke="black" points="403.91,-328.34 413.93,-324.9 403.95,-321.34 403.91,-328.34"/>
<text text-anchor="middle" x="331.5" y="-327.8" font-family="Times-Roman" font-size="14.00">&lt;epsilon&gt;:r</text>
</g>
<!-- 3&#45;&gt;2 -->
<g id="edge7" class="edge">
<title>3&#45;&gt;2</title>
<path fill="none" stroke="black" d="M349.33,-215.3C383.33,-221.66 462.69,-235 530,-235 530,-235 530,-235 763.75,-235 785.88,-235 810.3,-229.71 828.8,-224.58"/>
<polygon fill="black" stroke="black" points="829.8,-227.93 838.42,-221.77 827.84,-221.21 829.8,-227.93"/>
<text text-anchor="middle" x="605" y="-238.8" font-family="Times-Roman" font-size="14.00">a:a</text>
</g>
<!-- 3&#45;&gt;3 -->
<g id="edge8" class="edge">
<title>3&#45;&gt;3</title>
<path fill="none" stroke="black" d="M319.58,-225.67C314.81,-236.66 318.78,-248 331.5,-248 340.24,-248 344.86,-242.64 345.33,-235.72"/>
<polygon fill="black" stroke="black" points="348.73,-234.84 343.42,-225.67 341.85,-236.14 348.73,-234.84"/>
<text text-anchor="middle" x="331.5" y="-251.8" font-family="Times-Roman" font-size="14.00">b:x</text>
</g>
<!-- 6&#45;&gt;2 -->
<g id="edge14" class="edge">
<title>6&#45;&gt;2</title>
<path fill="none" stroke="black" d="M778.55,-165.22C792.74,-174.05 814.47,-187.58 831.69,-198.31"/>
<polygon fill="black" stroke="black" points="829.89,-201.31 840.23,-203.62 833.59,-195.37 829.89,-201.31"/>
<text text-anchor="middle" x="811.5" y="-195.8" font-family="Times-Roman" font-size="14.00">a:a</text>
</g>
<!-- 6&#45;&gt;6 -->
<g id="edge15" class="edge">
<title>6&#45;&gt;6</title>
<path fill="none" stroke="black" d="M754.38,-172.29C752.37,-182.39 755.15,-192 762.75,-192 767.61,-192 770.51,-188.06 771.43,-182.57"/>
<polygon fill="black" stroke="black" points="774.92,-182.18 771.11,-172.29 767.92,-182.39 774.92,-182.18"/>
<text text-anchor="middle" x="762.75" y="-195.8" font-family="Times-Roman" font-size="14.00">c:&lt;epsilon&gt;</text>
</g>
<!-- 4&#45;&gt;2 -->
<g id="edge10" class="edge">
<title>4&#45;&gt;2</title>
<path fill="none" stroke="black" d="M622.92,-96.88C656.41,-91.62 732.48,-84.25 785.5,-114 813.85,-129.91 834.07,-161.95 845.94,-185.7"/>
<polygon fill="black" stroke="black" points="842.9,-187.46 850.37,-194.98 849.22,-184.45 842.9,-187.46"/>
<text text-anchor="middle" x="762.75" y="-117.8" font-family="Times-Roman" font-size="14.00">a:a</text>
</g>
<!-- 4&#45;&gt;6 -->
<g id="edge11" class="edge">
<title>4&#45;&gt;6</title>
<path fill="none" stroke="black" d="M620.57,-109.68C625.91,-112.94 632.08,-116.41 638,-119 670.17,-133.1 709.29,-143.8 734.82,-149.98"/>
<polygon fill="black" stroke="black" points="734.34,-153.46 744.87,-152.35 735.94,-146.64 734.34,-153.46"/>
<text text-anchor="middle" x="681.5" y="-149.8" font-family="Times-Roman" font-size="14.00">c:&lt;epsilon&gt;</text>
</g>
<!-- 4&#45;&gt;4 -->
<g id="edge12" class="edge">
<title>4&#45;&gt;4</title>
<path fill="none" stroke="black" d="M593.08,-113.67C588.31,-124.66 592.28,-136 605,-136 613.74,-136 618.36,-130.64 618.83,-123.72"/>
<polygon fill="black" stroke="black" points="622.23,-122.84 616.92,-113.67 615.35,-124.14 622.23,-122.84"/>
<text text-anchor="middle" x="605" y="-139.8" font-family="Times-Roman" font-size="14.00">c:y</text>
</g>
<!-- 7 -->
<g id="node8" class="node">
<title>7</title>
<ellipse fill="none" stroke="black" cx="762.75" cy="-18" rx="18" ry="18"/>
<text text-anchor="middle" x="762.75" y="-14.3" font-family="Times-Roman" font-size="14.00">7</text>
</g>
<!-- 4&#45;&gt;7 -->
<g id="edge9" class="edge">
<title>4&#45;&gt;7</title>
<path fill="none" stroke="black" d="M619.58,-88.84C625.12,-84.56 631.69,-79.79 638,-76 670.5,-56.48 710.64,-38.73 736.22,-28.15"/>
<polygon fill="black" stroke="black" points="737.65,-31.34 745.59,-24.32 735.01,-24.86 737.65,-31.34"/>
<text text-anchor="middle" x="681.5" y="-79.8" font-family="Times-Roman" font-size="14.00">&lt;epsilon&gt;:y</text>
</g>
<!-- 7&#45;&gt;2 -->
<g id="edge17" class="edge">
<title>7&#45;&gt;2</title>
<path fill="none" stroke="black" d="M777.76,-28.17C791.21,-38.66 811.12,-56.25 822.5,-76 841.78,-109.47 850.91,-153.36 855.11,-182.78"/>
<polygon fill="black" stroke="black" points="851.67,-183.46 856.45,-192.92 858.61,-182.55 851.67,-183.46"/>
<text text-anchor="middle" x="811.5" y="-79.8" font-family="Times-Roman" font-size="14.00">a:a</text>
</g>
<!-- 7&#45;&gt;7 -->
<g id="edge16" class="edge">
<title>7&#45;&gt;7</title>
<path fill="none" stroke="black" d="M754.38,-34.29C752.37,-44.39 755.15,-54 762.75,-54 767.61,-54 770.51,-50.06 771.43,-44.57"/>
<polygon fill="black" stroke="black" points="774.92,-44.18 771.11,-34.29 767.92,-44.39 774.92,-44.18"/>
<text text-anchor="middle" x="762.75" y="-57.8" font-family="Times-Roman" font-size="14.00">&lt;epsilon&gt;:y</text>
</g>
<!-- 9 -->
<g id="node10" class="node">
<title>9</title>
<ellipse fill="none" stroke="black" cx="605" cy="-326" rx="18" ry="18"/>
<text text-anchor="middle" x="605" y="-322.3" font-family="Times-Roman" font-size="14.00">9</text>
</g>
<!-- 8&#45;&gt;9 -->
<g id="edge18" class="edge">
<title>8&#45;&gt;9</title>
<path fill="none" stroke="black" d="M450.02,-325.1C479.65,-325.27 540.94,-325.63 576.61,-325.84"/>
<polygon fill="black" stroke="black" points="576.77,-329.34 586.79,-325.9 576.81,-322.34 576.77,-329.34"/>
<text text-anchor="middle" x="531" y="-328.8" font-family="Times-Roman" font-size="14.00">&lt;epsilon&gt;:i</text>
</g>
<!-- 10 -->
<g id="node11" class="node">
<title>10</title>
<ellipse fill="none" stroke="black" cx="762.75" cy="-329" rx="23" ry="23"/>
<text text-anchor="middle" x="762.75" y="-325.3" font-family="Times-Roman" font-size="14.00">10</text>
</g>
<!-- 9&#45;&gt;10 -->
<g id="edge19" class="edge">
<title>9&#45;&gt;10</title>
<path fill="none" stroke="black" d="M623.26,-326.33C648.88,-326.83 697.4,-327.76 729.66,-328.38"/>
<polygon fill="black" stroke="black" points="729.85,-331.89 739.92,-328.58 729.99,-324.89 729.85,-331.89"/>
<text text-anchor="middle" x="681.5" y="-331.8" font-family="Times-Roman" font-size="14.00">&lt;epsilon&gt;:c</text>
</g>
<!-- 10&#45;&gt;2 -->
<g id="edge20" class="edge">
<title>10&#45;&gt;2</title>
<path fill="none" stroke="black" d="M783.78,-320.05C796.21,-313.68 811.81,-304.11 822.5,-292 834.27,-278.66 842.94,-260.8 848.82,-245.64"/>
<polygon fill="black" stroke="black" points="852.14,-246.74 852.28,-236.14 845.57,-244.34 852.14,-246.74"/>
<text text-anchor="middle" x="811.5" y="-313.8" font-family="Times-Roman" font-size="14.00">a:a</text>
</g>
</g>
</svg>
