<?xml version="1.0" encoding="UTF-8" standalone="no"?>
<!DOCTYPE svg PUBLIC "-//W3C//DTD SVG 1.1//EN"
 "http://www.w3.org/Graphics/SVG/1.1/DTD/svg11.dtd">
<!-- Generated by graphviz version 2.44.0 (0)
 -->
<!-- Title: FST Pages: 1 -->
<svg width="612pt" height="39pt"
 viewBox="0.00 0.00 612.00 38.95" xmlns="http://www.w3.org/2000/svg" xmlns:xlink="http://www.w3.org/1999/xlink">
<g id="graph0" class="graph" transform="scale(0.17 0.17) rotate(0) translate(4 219.29)">
<title>FST</title>
<polygon fill="white" stroke="transparent" points="-4,4 -4,-219.29 3504.47,-219.29 3504.47,4 -4,4"/>
<!-- 18 -->
<g id="node1" class="node">
<title>18</title>
<ellipse fill="none" stroke="black" stroke-width="2" cx="22.75" cy="-152.29" rx="23" ry="23"/>
<text text-anchor="middle" x="22.75" y="-148.59" font-family="Times-Roman" font-size="14.00">18</text>
</g>
<!-- 19 -->
<g id="node2" class="node">
<title>19</title>
<ellipse fill="none" stroke="black" cx="121.24" cy="-152.29" rx="23" ry="23"/>
<text text-anchor="middle" x="121.24" y="-148.59" font-family="Times-Roman" font-size="14.00">19</text>
</g>
<!-- 18&#45;&gt;19 -->
<g id="edge1" class="edge">
<title>18&#45;&gt;19</title>
<path fill="none" stroke="black" d="M45.64,-152.29C58.23,-152.29 74.26,-152.29 88.24,-152.29"/>
<polygon fill="black" stroke="black" points="88.43,-155.79 98.43,-152.29 88.43,-148.79 88.43,-155.79"/>
<text text-anchor="middle" x="72" y="-156.09" font-family="Times-Roman" font-size="14.00">0:0</text>
</g>
<!-- 17 -->
<g id="node20" class="node">
<title>17</title>
<ellipse fill="none" stroke="black" cx="348.74" cy="-152.29" rx="23" ry="23"/>
<text text-anchor="middle" x="348.74" y="-148.59" font-family="Times-Roman" font-size="14.00">17</text>
</g>
<!-- 19&#45;&gt;17 -->
<g id="edge25" class="edge">
<title>19&#45;&gt;17</title>
<path fill="none" stroke="black" d="M144.28,-152.29C184.37,-152.29 269.41,-152.29 315.84,-152.29"/>
<polygon fill="black" stroke="black" points="315.95,-155.79 325.95,-152.29 315.95,-148.79 315.95,-155.79"/>
<text text-anchor="middle" x="234.99" y="-156.09" font-family="Times-Roman" font-size="14.00">&lt;epsilon&gt;:&lt;epsilon&gt;</text>
</g>
<!-- 0 -->
<g id="node3" class="node">
<title>0</title>
<ellipse fill="none" stroke="black" cx="3478.47" cy="-118.29" rx="18" ry="18"/>
<ellipse fill="none" stroke="black" cx="3478.47" cy="-118.29" rx="22" ry="22"/>
<text text-anchor="middle" x="3478.47" y="-114.59" font-family="Times-Roman" font-size="14.00">0</text>
</g>
<!-- 1 -->
<g id="node4" class="node">
<title>1</title>
<ellipse fill="none" stroke="black" cx="3167.47" cy="-118.29" rx="18" ry="18"/>
<text text-anchor="middle" x="3167.47" y="-114.59" font-family="Times-Roman" font-size="14.00">1</text>
</g>
<!-- 2 -->
<g id="node5" class="node">
<title>2</title>
<ellipse fill="none" stroke="black" cx="3256.47" cy="-118.29" rx="18" ry="18"/>
<text text-anchor="middle" x="3256.47" y="-114.59" font-family="Times-Roman" font-size="14.00">2</text>
</g>
<!-- 1&#45;&gt;2 -->
<g id="edge2" class="edge">
<title>1&#45;&gt;2</title>
<path fill="none" stroke="black" d="M3185.66,-118.29C3197.81,-118.29 3214.36,-118.29 3228.29,-118.29"/>
<polygon fill="black" stroke="black" points="3228.32,-121.79 3238.32,-118.29 3228.32,-114.79 3228.32,-121.79"/>
<text text-anchor="middle" x="3211.97" y="-122.09" font-family="Times-Roman" font-size="14.00">1:1</text>
</g>
<!-- 2&#45;&gt;0 -->
<g id="edge3" class="edge">
<title>2&#45;&gt;0</title>
<path fill="none" stroke="black" d="M3274.73,-118.29C3311.67,-118.29 3398.81,-118.29 3445.92,-118.29"/>
<polygon fill="black" stroke="black" points="3446.16,-121.79 3456.16,-118.29 3446.16,-114.79 3446.16,-121.79"/>
<text text-anchor="middle" x="3365.47" y="-122.09" font-family="Times-Roman" font-size="14.00">&lt;epsilon&gt;:&lt;epsilon&gt;</text>
</g>
<!-- 3 -->
<g id="node6" class="node">
<title>3</title>
<ellipse fill="none" stroke="black" cx="2945.47" cy="-118.29" rx="18" ry="18"/>
<ellipse fill="none" stroke="black" cx="2945.47" cy="-118.29" rx="22" ry="22"/>
<text text-anchor="middle" x="2945.47" y="-114.59" font-family="Times-Roman" font-size="14.00">3</text>
</g>
<!-- 3&#45;&gt;1 -->
<g id="edge4" class="edge">
<title>3&#45;&gt;1</title>
<path fill="none" stroke="black" d="M2967.57,-118.29C3007.71,-118.29 3095.02,-118.29 3139.4,-118.29"/>
<polygon fill="black" stroke="black" points="3139.45,-121.79 3149.45,-118.29 3139.45,-114.79 3139.45,-121.79"/>
<text text-anchor="middle" x="3058.47" y="-122.09" font-family="Times-Roman" font-size="14.00">&lt;epsilon&gt;:&lt;epsilon&gt;</text>
</g>
<!-- 4 -->
<g id="node7" class="node">
<title>4</title>
<ellipse fill="none" stroke="black" cx="2634.47" cy="-118.29" rx="18" ry="18"/>
<text text-anchor="middle" x="2634.47" y="-114.59" font-family="Times-Roman" font-size="14.00">4</text>
</g>
<!-- 5 -->
<g id="node8" class="node">
<title>5</title>
<ellipse fill="none" stroke="black" cx="2723.47" cy="-118.29" rx="18" ry="18"/>
<text text-anchor="middle" x="2723.47" y="-114.59" font-family="Times-Roman" font-size="14.00">5</text>
</g>
<!-- 4&#45;&gt;5 -->
<g id="edge5" class="edge">
<title>4&#45;&gt;5</title>
<path fill="none" stroke="black" d="M2652.66,-118.29C2664.81,-118.29 2681.36,-118.29 2695.29,-118.29"/>
<polygon fill="black" stroke="black" points="2695.32,-121.79 2705.32,-118.29 2695.32,-114.79 2695.32,-121.79"/>
<text text-anchor="middle" x="2678.97" y="-122.09" font-family="Times-Roman" font-size="14.00">1:1</text>
</g>
<!-- 5&#45;&gt;3 -->
<g id="edge6" class="edge">
<title>5&#45;&gt;3</title>
<path fill="none" stroke="black" d="M2741.73,-118.29C2778.67,-118.29 2865.81,-118.29 2912.92,-118.29"/>
<polygon fill="black" stroke="black" points="2913.16,-121.79 2923.16,-118.29 2913.16,-114.79 2913.16,-121.79"/>
<text text-anchor="middle" x="2832.47" y="-122.09" font-family="Times-Roman" font-size="14.00">&lt;epsilon&gt;:&lt;epsilon&gt;</text>
</g>
<!-- 6 -->
<g id="node9" class="node">
<title>6</title>
<ellipse fill="none" stroke="black" cx="2327.47" cy="-118.29" rx="18" ry="18"/>
<text text-anchor="middle" x="2327.47" y="-114.59" font-family="Times-Roman" font-size="14.00">6</text>
</g>
<!-- 7 -->
<g id="node10" class="node">
<title>7</title>
<ellipse fill="none" stroke="black" cx="2416.47" cy="-118.29" rx="18" ry="18"/>
<text text-anchor="middle" x="2416.47" y="-114.59" font-family="Times-Roman" font-size="14.00">7</text>
</g>
<!-- 6&#45;&gt;7 -->
<g id="edge7" class="edge">
<title>6&#45;&gt;7</title>
<path fill="none" stroke="black" d="M2345.66,-118.29C2357.81,-118.29 2374.36,-118.29 2388.29,-118.29"/>
<polygon fill="black" stroke="black" points="2388.32,-121.79 2398.32,-118.29 2388.32,-114.79 2388.32,-121.79"/>
<text text-anchor="middle" x="2371.97" y="-122.09" font-family="Times-Roman" font-size="14.00">1:1</text>
</g>
<!-- 7&#45;&gt;4 -->
<g id="edge8" class="edge">
<title>7&#45;&gt;4</title>
<path fill="none" stroke="black" d="M2434.78,-118.29C2472.24,-118.29 2561.05,-118.29 2606.16,-118.29"/>
<polygon fill="black" stroke="black" points="2606.38,-121.79 2616.38,-118.29 2606.38,-114.79 2606.38,-121.79"/>
<text text-anchor="middle" x="2525.47" y="-122.09" font-family="Times-Roman" font-size="14.00">&lt;epsilon&gt;:&lt;epsilon&gt;</text>
</g>
<!-- 8 -->
<g id="node11" class="node">
<title>8</title>
<ellipse fill="none" stroke="black" cx="2020.47" cy="-118.29" rx="18" ry="18"/>
<text text-anchor="middle" x="2020.47" y="-114.59" font-family="Times-Roman" font-size="14.00">8</text>
</g>
<!-- 9 -->
<g id="node12" class="node">
<title>9</title>
<ellipse fill="none" stroke="black" cx="2109.47" cy="-118.29" rx="18" ry="18"/>
<text text-anchor="middle" x="2109.47" y="-114.59" font-family="Times-Roman" font-size="14.00">9</text>
</g>
<!-- 8&#45;&gt;9 -->
<g id="edge9" class="edge">
<title>8&#45;&gt;9</title>
<path fill="none" stroke="black" d="M2038.66,-118.29C2050.81,-118.29 2067.36,-118.29 2081.29,-118.29"/>
<polygon fill="black" stroke="black" points="2081.32,-121.79 2091.32,-118.29 2081.32,-114.79 2081.32,-121.79"/>
<text text-anchor="middle" x="2064.97" y="-122.09" font-family="Times-Roman" font-size="14.00">1:1</text>
</g>
<!-- 9&#45;&gt;6 -->
<g id="edge10" class="edge">
<title>9&#45;&gt;6</title>
<path fill="none" stroke="black" d="M2127.78,-118.29C2165.24,-118.29 2254.05,-118.29 2299.16,-118.29"/>
<polygon fill="black" stroke="black" points="2299.38,-121.79 2309.38,-118.29 2299.38,-114.79 2299.38,-121.79"/>
<text text-anchor="middle" x="2218.47" y="-122.09" font-family="Times-Roman" font-size="14.00">&lt;epsilon&gt;:&lt;epsilon&gt;</text>
</g>
<!-- 10 -->
<g id="node13" class="node">
<title>10</title>
<ellipse fill="none" stroke="black" cx="1258.72" cy="-103.29" rx="23" ry="23"/>
<text text-anchor="middle" x="1258.72" y="-99.59" font-family="Times-Roman" font-size="14.00">10</text>
</g>
<!-- 12 -->
<g id="node14" class="node">
<title>12</title>
<ellipse fill="none" stroke="black" cx="1539.47" cy="-90.29" rx="23" ry="23"/>
<text text-anchor="middle" x="1539.47" y="-86.59" font-family="Times-Roman" font-size="14.00">12</text>
</g>
<!-- 10&#45;&gt;12 -->
<g id="edge11" class="edge">
<title>10&#45;&gt;12</title>
<path fill="none" stroke="black" d="M1281.6,-102.27C1330.55,-99.99 1449.12,-94.46 1506.42,-91.79"/>
<polygon fill="black" stroke="black" points="1506.87,-95.27 1516.7,-91.31 1506.55,-88.28 1506.87,-95.27"/>
<text text-anchor="middle" x="1372.47" y="-106.09" font-family="Times-Roman" font-size="14.00">&lt;epsilon&gt;:&lt;epsilon&gt;</text>
</g>
<!-- 11 -->
<g id="node15" class="node">
<title>11</title>
<ellipse fill="none" stroke="black" cx="1539.47" cy="-27.29" rx="23" ry="23"/>
<text text-anchor="middle" x="1539.47" y="-23.59" font-family="Times-Roman" font-size="14.00">11</text>
</g>
<!-- 10&#45;&gt;11 -->
<g id="edge12" class="edge">
<title>10&#45;&gt;11</title>
<path fill="none" stroke="black" d="M1276.33,-88.72C1282.33,-84.13 1289.38,-79.43 1296.47,-76.29 1315.55,-67.85 1445.64,-43.9 1506.8,-32.92"/>
<polygon fill="black" stroke="black" points="1507.47,-36.36 1516.69,-31.15 1506.23,-29.47 1507.47,-36.36"/>
<text text-anchor="middle" x="1372.47" y="-80.09" font-family="Times-Roman" font-size="14.00">0:0</text>
</g>
<!-- 13 -->
<g id="node16" class="node">
<title>13</title>
<ellipse fill="none" stroke="black" cx="1744.47" cy="-118.29" rx="23" ry="23"/>
<text text-anchor="middle" x="1744.47" y="-114.59" font-family="Times-Roman" font-size="14.00">13</text>
</g>
<!-- 12&#45;&gt;13 -->
<g id="edge15" class="edge">
<title>12&#45;&gt;13</title>
<path fill="none" stroke="black" d="M1562.2,-93.29C1598.14,-98.25 1670.14,-108.18 1711.77,-113.92"/>
<polygon fill="black" stroke="black" points="1711.52,-117.42 1721.9,-115.32 1712.48,-110.49 1711.52,-117.42"/>
<text text-anchor="middle" x="1641.97" y="-109.09" font-family="Times-Roman" font-size="14.00">1:1</text>
</g>
<!-- 11&#45;&gt;8 -->
<g id="edge13" class="edge">
<title>11&#45;&gt;8</title>
<path fill="none" stroke="black" d="M1562.35,-30.16C1609.65,-36.47 1724.87,-52.52 1820.47,-71.29 1882.72,-83.52 1955.03,-101.58 1993.02,-111.37"/>
<polygon fill="black" stroke="black" points="1992.23,-114.78 2002.79,-113.9 1993.99,-108 1992.23,-114.78"/>
<text text-anchor="middle" x="1744.47" y="-75.09" font-family="Times-Roman" font-size="14.00">&lt;epsilon&gt;:&lt;epsilon&gt;</text>
</g>
<!-- 11&#45;&gt;10 -->
<g id="edge14" class="edge">
<title>11&#45;&gt;10</title>
<path fill="none" stroke="black" d="M1517.65,-20.17C1473.07,-6.3 1366.72,19.27 1296.47,-25.29 1280.66,-35.32 1271.53,-54.16 1266.32,-70.82"/>
<polygon fill="black" stroke="black" points="1262.86,-70.23 1263.57,-80.8 1269.6,-72.1 1262.86,-70.23"/>
<text text-anchor="middle" x="1372.47" y="-29.09" font-family="Times-Roman" font-size="14.00">&lt;epsilon&gt;:&lt;epsilon&gt;</text>
</g>
<!-- 13&#45;&gt;8 -->
<g id="edge16" class="edge">
<title>13&#45;&gt;8</title>
<path fill="none" stroke="black" d="M1767.43,-118.29C1816.97,-118.29 1937.35,-118.29 1991.85,-118.29"/>
<polygon fill="black" stroke="black" points="1992.13,-121.79 2002.13,-118.29 1992.13,-114.79 1992.13,-121.79"/>
<text text-anchor="middle" x="1911.47" y="-122.09" font-family="Times-Roman" font-size="14.00">&lt;epsilon&gt;:&lt;epsilon&gt;</text>
</g>
<!-- 13&#45;&gt;10 -->
<g id="edge17" class="edge">
<title>13&#45;&gt;10</title>
<path fill="none" stroke="black" d="M1721.67,-120.16C1703.45,-121.61 1676.79,-123.52 1653.47,-124.29 1643.26,-124.63 1640.69,-124.34 1630.47,-124.29 1482.02,-123.63 1440.94,-155.46 1296.47,-121.29 1293.62,-120.62 1290.73,-119.7 1287.9,-118.62"/>
<polygon fill="black" stroke="black" points="1289.13,-115.34 1278.57,-114.52 1286.31,-121.75 1289.13,-115.34"/>
<text text-anchor="middle" x="1539.47" y="-139.09" font-family="Times-Roman" font-size="14.00">&lt;epsilon&gt;:&lt;epsilon&gt;</text>
</g>
<!-- 14 -->
<g id="node17" class="node">
<title>14</title>
<ellipse fill="none" stroke="black" cx="1031.23" cy="-152.29" rx="23" ry="23"/>
<text text-anchor="middle" x="1031.23" y="-148.59" font-family="Times-Roman" font-size="14.00">14</text>
</g>
<!-- 14&#45;&gt;8 -->
<g id="edge18" class="edge">
<title>14&#45;&gt;8</title>
<path fill="none" stroke="black" d="M1052.75,-159.69C1092,-173.15 1180.67,-200.29 1257.72,-200.29 1257.72,-200.29 1257.72,-200.29 1745.47,-200.29 1856.61,-200.29 1884.9,-180.09 1987.47,-137.29 1990.36,-136.09 1993.3,-134.66 1996.17,-133.13"/>
<polygon fill="black" stroke="black" points="1998.02,-136.11 2004.95,-128.09 1994.53,-130.04 1998.02,-136.11"/>
<text text-anchor="middle" x="1539.47" y="-204.09" font-family="Times-Roman" font-size="14.00">&lt;epsilon&gt;:&lt;epsilon&gt;</text>
</g>
<!-- 14&#45;&gt;10 -->
<g id="edge19" class="edge">
<title>14&#45;&gt;10</title>
<path fill="none" stroke="black" d="M1053.85,-147.6C1093.92,-138.89 1179.86,-120.21 1226.34,-110.11"/>
<polygon fill="black" stroke="black" points="1227.14,-113.52 1236.17,-107.98 1225.65,-106.68 1227.14,-113.52"/>
<text text-anchor="middle" x="1144.98" y="-148.09" font-family="Times-Roman" font-size="14.00">&lt;epsilon&gt;:&lt;epsilon&gt;</text>
</g>
<!-- 15 -->
<g id="node18" class="node">
<title>15</title>
<ellipse fill="none" stroke="black" cx="576.24" cy="-126.29" rx="23" ry="23"/>
<text text-anchor="middle" x="576.24" y="-122.59" font-family="Times-Roman" font-size="14.00">15</text>
</g>
<!-- 16 -->
<g id="node19" class="node">
<title>16</title>
<ellipse fill="none" stroke="black" cx="803.73" cy="-126.29" rx="23" ry="23"/>
<text text-anchor="middle" x="803.73" y="-122.59" font-family="Times-Roman" font-size="14.00">16</text>
</g>
<!-- 15&#45;&gt;16 -->
<g id="edge20" class="edge">
<title>15&#45;&gt;16</title>
<path fill="none" stroke="black" d="M592.54,-109.85C598.63,-104.45 606.07,-99.11 613.98,-96.29 677.62,-73.62 702.35,-73.62 765.98,-96.29 770.68,-97.97 775.21,-100.53 779.4,-103.46"/>
<polygon fill="black" stroke="black" points="777.42,-106.37 787.43,-109.85 781.78,-100.89 777.42,-106.37"/>
<text text-anchor="middle" x="689.98" y="-100.09" font-family="Times-Roman" font-size="14.00">0:0</text>
</g>
<!-- 16&#45;&gt;14 -->
<g id="edge21" class="edge">
<title>16&#45;&gt;14</title>
<path fill="none" stroke="black" d="M826.35,-128.79C866.24,-133.39 951.56,-143.22 998.19,-148.6"/>
<polygon fill="black" stroke="black" points="998.01,-152.1 1008.34,-149.77 998.81,-145.15 998.01,-152.1"/>
<text text-anchor="middle" x="917.48" y="-152.09" font-family="Times-Roman" font-size="14.00">&lt;epsilon&gt;:&lt;epsilon&gt;</text>
</g>
<!-- 16&#45;&gt;15 -->
<g id="edge22" class="edge">
<title>16&#45;&gt;15</title>
<path fill="none" stroke="black" d="M780.94,-126.29C741.03,-126.29 656.01,-126.29 609.42,-126.29"/>
<polygon fill="black" stroke="black" points="609.27,-122.79 599.27,-126.29 609.27,-129.79 609.27,-122.79"/>
<text text-anchor="middle" x="689.98" y="-130.09" font-family="Times-Roman" font-size="14.00">&lt;epsilon&gt;:&lt;epsilon&gt;</text>
</g>
<!-- 17&#45;&gt;14 -->
<g id="edge23" class="edge">
<title>17&#45;&gt;14</title>
<path fill="none" stroke="black" d="M370.49,-159.65C375.65,-161.16 381.22,-162.52 386.49,-163.29 653.41,-202.39 726.55,-202.39 993.48,-163.29 995.54,-162.99 997.64,-162.6 999.75,-162.15"/>
<polygon fill="black" stroke="black" points="1000.66,-165.52 1009.48,-159.65 998.92,-158.74 1000.66,-165.52"/>
<text text-anchor="middle" x="689.98" y="-197.09" font-family="Times-Roman" font-size="14.00">&lt;epsilon&gt;:&lt;epsilon&gt;</text>
</g>
<!-- 17&#45;&gt;15 -->
<g id="edge24" class="edge">
<title>17&#45;&gt;15</title>
<path fill="none" stroke="black" d="M371.36,-149.8C411.25,-145.2 496.57,-135.36 543.2,-129.99"/>
<polygon fill="black" stroke="black" points="543.82,-133.44 553.35,-128.82 543.01,-126.49 543.82,-133.44"/>
<text text-anchor="middle" x="462.49" y="-152.09" font-family="Times-Roman" font-size="14.00">&lt;epsilon&gt;:&lt;epsilon&gt;</text>
</g>
</g>
</svg>
