<?xml version="1.0" encoding="UTF-8" standalone="no"?>
<!DOCTYPE svg PUBLIC "-//W3C//DTD SVG 1.1//EN"
 "http://www.w3.org/Graphics/SVG/1.1/DTD/svg11.dtd">
<!-- Generated by graphviz version 2.44.0 (0)
 -->
<!-- Title: FST Pages: 1 -->
<svg width="612pt" height="97pt"
 viewBox="0.00 0.00 612.00 97.45" xmlns="http://www.w3.org/2000/svg" xmlns:xlink="http://www.w3.org/1999/xlink">
<g id="graph0" class="graph" transform="scale(0.69 0.69) rotate(0) translate(4 137)">
<title>FST</title>
<polygon fill="white" stroke="transparent" points="-4,4 -4,-137 881.49,-137 881.49,4 -4,4"/>
<!-- 0 -->
<g id="node1" class="node">
<title>0</title>
<ellipse fill="none" stroke="black" stroke-width="2" cx="18" cy="-56" rx="18" ry="18"/>
<text text-anchor="middle" x="18" y="-52.3" font-family="Times-Roman" font-size="14.00">0</text>
</g>
<!-- 2 -->
<g id="node2" class="node">
<title>2</title>
<ellipse fill="none" stroke="black" cx="295.75" cy="-115" rx="18" ry="18"/>
<text text-anchor="middle" x="295.75" y="-111.3" font-family="Times-Roman" font-size="14.00">2</text>
</g>
<!-- 0&#45;&gt;2 -->
<g id="edge1" class="edge">
<title>0&#45;&gt;2</title>
<path fill="none" stroke="black" d="M33.11,-65.84C38.5,-69.19 44.83,-72.68 51,-75 69.19,-81.85 74.84,-79.69 94,-83 156.15,-93.73 229.35,-105.07 267.89,-110.94"/>
<polygon fill="black" stroke="black" points="267.39,-114.41 277.8,-112.45 268.44,-107.49 267.39,-114.41"/>
<text text-anchor="middle" x="157.5" y="-98.8" font-family="Times-Roman" font-size="14.00">A:A</text>
</g>
<!-- 1 -->
<g id="node3" class="node">
<title>1</title>
<ellipse fill="none" stroke="black" cx="568.24" cy="-27" rx="18" ry="18"/>
<text text-anchor="middle" x="568.24" y="-23.3" font-family="Times-Roman" font-size="14.00">1</text>
</g>
<!-- 0&#45;&gt;1 -->
<g id="edge2" class="edge">
<title>0&#45;&gt;1</title>
<path fill="none" stroke="black" d="M30.7,-43.01C46.95,-26.47 78.09,0 111,0 111,0 111,0 472.5,0 496.85,0 523.43,-8.35 542.22,-15.77"/>
<polygon fill="black" stroke="black" points="540.96,-19.04 551.54,-19.62 543.64,-12.57 540.96,-19.04"/>
<text text-anchor="middle" x="295.75" y="-3.8" font-family="Times-Roman" font-size="14.00">N:N</text>
</g>
<!-- 3 -->
<g id="node4" class="node">
<title>3</title>
<ellipse fill="none" stroke="black" cx="112" cy="-56" rx="18" ry="18"/>
<text text-anchor="middle" x="112" y="-52.3" font-family="Times-Roman" font-size="14.00">3</text>
</g>
<!-- 0&#45;&gt;3 -->
<g id="edge3" class="edge">
<title>0&#45;&gt;3</title>
<path fill="none" stroke="black" d="M36.3,-56C49.54,-56 68.05,-56 83.34,-56"/>
<polygon fill="black" stroke="black" points="83.77,-59.5 93.77,-56 83.77,-52.5 83.77,-59.5"/>
<text text-anchor="middle" x="65" y="-59.8" font-family="Times-Roman" font-size="14.00">Q:Q</text>
</g>
<!-- 5 -->
<g id="node6" class="node">
<title>5</title>
<ellipse fill="none" stroke="black" cx="389.5" cy="-114" rx="18" ry="18"/>
<text text-anchor="middle" x="389.5" y="-110.3" font-family="Times-Roman" font-size="14.00">5</text>
</g>
<!-- 2&#45;&gt;5 -->
<g id="edge5" class="edge">
<title>2&#45;&gt;5</title>
<path fill="none" stroke="black" d="M314.01,-114.81C327.2,-114.67 345.67,-114.47 360.91,-114.3"/>
<polygon fill="black" stroke="black" points="361.36,-117.8 371.32,-114.19 361.28,-110.8 361.36,-117.8"/>
<text text-anchor="middle" x="345" y="-117.8" font-family="Times-Roman" font-size="14.00">d:d</text>
</g>
<!-- 6 -->
<g id="node7" class="node">
<title>6</title>
<ellipse fill="none" stroke="black" cx="389.5" cy="-46" rx="18" ry="18"/>
<text text-anchor="middle" x="389.5" y="-42.3" font-family="Times-Roman" font-size="14.00">6</text>
</g>
<!-- 2&#45;&gt;6 -->
<g id="edge6" class="edge">
<title>2&#45;&gt;6</title>
<path fill="none" stroke="black" d="M310.68,-104.52C325.45,-93.41 348.99,-75.71 366.32,-62.68"/>
<polygon fill="black" stroke="black" points="368.84,-65.16 374.73,-56.35 364.64,-59.57 368.84,-65.16"/>
<text text-anchor="middle" x="345" y="-89.8" font-family="Times-Roman" font-size="14.00">r:r</text>
</g>
<!-- 4 -->
<g id="node5" class="node">
<title>4</title>
<ellipse fill="none" stroke="black" cx="660.99" cy="-57" rx="18" ry="18"/>
<text text-anchor="middle" x="660.99" y="-53.3" font-family="Times-Roman" font-size="14.00">4</text>
</g>
<!-- 1&#45;&gt;4 -->
<g id="edge4" class="edge">
<title>1&#45;&gt;4</title>
<path fill="none" stroke="black" d="M585.47,-32.36C598.93,-36.82 618.34,-43.23 633.97,-48.4"/>
<polygon fill="black" stroke="black" points="633.01,-51.77 643.6,-51.58 635.21,-45.12 633.01,-51.77"/>
<text text-anchor="middle" x="616.99" y="-49.8" font-family="Times-Roman" font-size="14.00">o:o</text>
</g>
<!-- 7 -->
<g id="node8" class="node">
<title>7</title>
<ellipse fill="none" stroke="black" cx="203" cy="-56" rx="18" ry="18"/>
<text text-anchor="middle" x="203" y="-52.3" font-family="Times-Roman" font-size="14.00">7</text>
</g>
<!-- 3&#45;&gt;7 -->
<g id="edge7" class="edge">
<title>3&#45;&gt;7</title>
<path fill="none" stroke="black" d="M130.16,-56C142.72,-56 160.02,-56 174.5,-56"/>
<polygon fill="black" stroke="black" points="174.89,-59.5 184.89,-56 174.89,-52.5 174.89,-59.5"/>
<text text-anchor="middle" x="157.5" y="-59.8" font-family="Times-Roman" font-size="14.00">u:u</text>
</g>
<!-- 8 -->
<g id="node9" class="node">
<title>8</title>
<ellipse fill="none" stroke="black" cx="752.99" cy="-57" rx="18" ry="18"/>
<text text-anchor="middle" x="752.99" y="-53.3" font-family="Times-Roman" font-size="14.00">8</text>
</g>
<!-- 4&#45;&gt;8 -->
<g id="edge8" class="edge">
<title>4&#45;&gt;8</title>
<path fill="none" stroke="black" d="M679.34,-57C692.17,-57 709.88,-57 724.61,-57"/>
<polygon fill="black" stroke="black" points="724.69,-60.5 734.69,-57 724.69,-53.5 724.69,-60.5"/>
<text text-anchor="middle" x="706.99" y="-60.8" font-family="Times-Roman" font-size="14.00">u:u</text>
</g>
<!-- 9 -->
<g id="node10" class="node">
<title>9</title>
<ellipse fill="none" stroke="black" cx="471.5" cy="-53" rx="18" ry="18"/>
<text text-anchor="middle" x="471.5" y="-49.3" font-family="Times-Roman" font-size="14.00">9</text>
</g>
<!-- 5&#45;&gt;9 -->
<g id="edge9" class="edge">
<title>5&#45;&gt;9</title>
<path fill="none" stroke="black" d="M403.19,-101.7C408.92,-96.36 415.87,-90.16 422.5,-85 430.3,-78.92 439.23,-72.76 447.26,-67.5"/>
<polygon fill="black" stroke="black" points="449.31,-70.34 455.82,-61.98 445.52,-64.45 449.31,-70.34"/>
<text text-anchor="middle" x="430.5" y="-88.8" font-family="Times-Roman" font-size="14.00">j:j</text>
</g>
<!-- 6&#45;&gt;9 -->
<g id="edge10" class="edge">
<title>6&#45;&gt;9</title>
<path fill="none" stroke="black" d="M407.87,-45.67C417.01,-45.68 428.38,-45.95 438.5,-47 440.2,-47.18 441.94,-47.39 443.7,-47.64"/>
<polygon fill="black" stroke="black" points="443.19,-51.11 453.63,-49.3 444.35,-44.2 443.19,-51.11"/>
<text text-anchor="middle" x="430.5" y="-50.8" font-family="Times-Roman" font-size="14.00">t:t</text>
</g>
<!-- 10 -->
<g id="node11" class="node">
<title>10</title>
<ellipse fill="none" stroke="black" cx="295.75" cy="-56" rx="23" ry="23"/>
<text text-anchor="middle" x="295.75" y="-52.3" font-family="Times-Roman" font-size="14.00">10</text>
</g>
<!-- 7&#45;&gt;10 -->
<g id="edge11" class="edge">
<title>7&#45;&gt;10</title>
<path fill="none" stroke="black" d="M221.07,-56C232.77,-56 248.65,-56 262.68,-56"/>
<polygon fill="black" stroke="black" points="262.94,-59.5 272.94,-56 262.94,-52.5 262.94,-59.5"/>
<text text-anchor="middle" x="247" y="-59.8" font-family="Times-Roman" font-size="14.00">a:a</text>
</g>
<!-- 11 -->
<g id="node12" class="node">
<title>11</title>
<ellipse fill="none" stroke="black" cx="850.74" cy="-27" rx="22.96" ry="22.96"/>
<ellipse fill="none" stroke="black" cx="850.74" cy="-27" rx="27" ry="27"/>
<text text-anchor="middle" x="850.74" y="-23.3" font-family="Times-Roman" font-size="14.00">11</text>
</g>
<!-- 8&#45;&gt;11 -->
<g id="edge12" class="edge">
<title>8&#45;&gt;11</title>
<path fill="none" stroke="black" d="M770.67,-51.77C782.98,-47.92 800.15,-42.54 815.36,-37.77"/>
<polygon fill="black" stroke="black" points="816.49,-41.08 824.99,-34.76 814.4,-34.41 816.49,-41.08"/>
<text text-anchor="middle" x="797.49" y="-50.8" font-family="Times-Roman" font-size="14.00">n:n</text>
</g>
<!-- 9&#45;&gt;1 -->
<g id="edge14" class="edge">
<title>9&#45;&gt;1</title>
<path fill="none" stroke="black" d="M488.73,-47.74C493.76,-46.16 499.34,-44.46 504.5,-43 516.3,-39.65 529.44,-36.25 540.64,-33.45"/>
<polygon fill="black" stroke="black" points="541.8,-36.77 550.67,-30.97 540.12,-29.97 541.8,-36.77"/>
<text text-anchor="middle" x="517.5" y="-46.8" font-family="Times-Roman" font-size="14.00">N:N</text>
</g>
<!-- 12 -->
<g id="node13" class="node">
<title>12</title>
<ellipse fill="none" stroke="black" cx="568.24" cy="-92" rx="23" ry="23"/>
<text text-anchor="middle" x="568.24" y="-88.3" font-family="Times-Roman" font-size="14.00">12</text>
</g>
<!-- 9&#45;&gt;12 -->
<g id="edge13" class="edge">
<title>9&#45;&gt;12</title>
<path fill="none" stroke="black" d="M488.57,-59.62C501.86,-65.09 521.1,-73.01 537.23,-79.65"/>
<polygon fill="black" stroke="black" points="536.21,-83.01 546.79,-83.58 538.87,-76.54 536.21,-83.01"/>
<text text-anchor="middle" x="517.5" y="-78.8" font-family="Times-Roman" font-size="14.00">A:A</text>
</g>
<!-- 10&#45;&gt;6 -->
<g id="edge15" class="edge">
<title>10&#45;&gt;6</title>
<path fill="none" stroke="black" d="M317.02,-47.45C322.29,-45.61 328.03,-43.94 333.5,-43 342.47,-41.46 352.39,-41.48 361.3,-42.11"/>
<polygon fill="black" stroke="black" points="361.24,-45.63 371.53,-43.13 361.93,-38.66 361.24,-45.63"/>
<text text-anchor="middle" x="345" y="-46.8" font-family="Times-Roman" font-size="14.00">n:n</text>
</g>
<!-- 11&#45;&gt;1 -->
<g id="edge16" class="edge">
<title>11&#45;&gt;1</title>
<path fill="none" stroke="black" d="M823.85,-27C770.91,-27 650.71,-27 596.57,-27"/>
<polygon fill="black" stroke="black" points="596.37,-23.5 586.37,-27 596.37,-30.5 596.37,-23.5"/>
<text text-anchor="middle" x="706.99" y="-30.8" font-family="Times-Roman" font-size="14.00">N:N</text>
</g>
<!-- 12&#45;&gt;5 -->
<g id="edge17" class="edge">
<title>12&#45;&gt;5</title>
<path fill="none" stroke="black" d="M545.43,-94.72C513.1,-98.74 452.51,-106.28 417.45,-110.65"/>
<polygon fill="black" stroke="black" points="416.93,-107.18 407.44,-111.89 417.8,-114.13 416.93,-107.18"/>
<text text-anchor="middle" x="471.5" y="-108.8" font-family="Times-Roman" font-size="14.00">d:d</text>
</g>
</g>
</svg>
