<?xml version="1.0" encoding="UTF-8" standalone="no"?>
<!DOCTYPE svg PUBLIC "-//W3C//DTD SVG 1.1//EN"
 "http://www.w3.org/Graphics/SVG/1.1/DTD/svg11.dtd">
<!-- Generated by graphviz version 2.44.0 (0)
 -->
<!-- Title: FST Pages: 1 -->
<svg width="420pt" height="185pt"
 viewBox="0.00 0.00 419.89 184.89" xmlns="http://www.w3.org/2000/svg" xmlns:xlink="http://www.w3.org/1999/xlink">
<g id="graph0" class="graph" transform="scale(1 1) rotate(0) translate(4 180.89)">
<title>FST</title>
<polygon fill="white" stroke="transparent" points="-4,4 -4,-180.89 415.89,-180.89 415.89,4 -4,4"/>
<!-- 0 -->
<g id="node1" class="node">
<title>0</title>
<ellipse fill="none" stroke="black" stroke-width="2" cx="18" cy="-86.45" rx="18" ry="18"/>
<text text-anchor="middle" x="18" y="-82.75" font-family="Times-Roman" font-size="14.00">0</text>
</g>
<!-- 2 -->
<g id="node2" class="node">
<title>2</title>
<ellipse fill="none" stroke="black" cx="172" cy="-113.45" rx="18" ry="18"/>
<text text-anchor="middle" x="172" y="-109.75" font-family="Times-Roman" font-size="14.00">2</text>
</g>
<!-- 0&#45;&gt;2 -->
<g id="edge1" class="edge">
<title>0&#45;&gt;2</title>
<path fill="none" stroke="black" d="M35.85,-89.44C61.98,-94.08 112.54,-103.06 143.87,-108.63"/>
<polygon fill="black" stroke="black" points="143.62,-112.14 154.08,-110.44 144.84,-105.25 143.62,-112.14"/>
<text text-anchor="middle" x="95" y="-111.25" font-family="Times-Roman" font-size="14.00">0:&lt;epsilon&gt;</text>
</g>
<!-- 1 -->
<g id="node3" class="node">
<title>1</title>
<ellipse fill="none" stroke="black" cx="172" cy="-59.45" rx="18" ry="18"/>
<text text-anchor="middle" x="172" y="-55.75" font-family="Times-Roman" font-size="14.00">1</text>
</g>
<!-- 0&#45;&gt;1 -->
<g id="edge2" class="edge">
<title>0&#45;&gt;1</title>
<path fill="none" stroke="black" d="M34.67,-79.1C39.78,-76.97 45.54,-74.85 51,-73.45 82.15,-65.46 119.03,-62.02 143.6,-60.54"/>
<polygon fill="black" stroke="black" points="143.84,-64.03 153.64,-60.01 143.47,-57.04 143.84,-64.03"/>
<text text-anchor="middle" x="95" y="-77.25" font-family="Times-Roman" font-size="14.00">0:1</text>
</g>
<!-- 4 -->
<g id="node4" class="node">
<title>4</title>
<ellipse fill="none" stroke="black" cx="373.45" cy="-138.45" rx="34.4" ry="34.4"/>
<ellipse fill="none" stroke="black" cx="373.45" cy="-138.45" rx="38.39" ry="38.39"/>
<text text-anchor="middle" x="373.45" y="-134.75" font-family="Times-Roman" font-size="14.00">4/1.9</text>
</g>
<!-- 2&#45;&gt;4 -->
<g id="edge5" class="edge">
<title>2&#45;&gt;4</title>
<path fill="none" stroke="black" d="M189.51,-118.06C194.46,-119.31 199.92,-120.56 205,-121.45 245.17,-128.47 291.31,-132.89 324.97,-135.45"/>
<polygon fill="black" stroke="black" points="324.76,-138.95 334.99,-136.19 325.28,-131.97 324.76,-138.95"/>
<text text-anchor="middle" x="262.5" y="-138.25" font-family="Times-Roman" font-size="14.00">0:&lt;epsilon&gt;/0.4</text>
</g>
<!-- 3 -->
<g id="node5" class="node">
<title>3</title>
<ellipse fill="none" stroke="black" cx="373.45" cy="-38.45" rx="34.4" ry="34.4"/>
<ellipse fill="none" stroke="black" cx="373.45" cy="-38.45" rx="38.39" ry="38.39"/>
<text text-anchor="middle" x="373.45" y="-34.75" font-family="Times-Roman" font-size="14.00">3/1.1</text>
</g>
<!-- 2&#45;&gt;3 -->
<g id="edge6" class="edge">
<title>2&#45;&gt;3</title>
<path fill="none" stroke="black" d="M189.12,-107.32C194.15,-105.56 199.76,-103.77 205,-102.45 255.23,-89.76 273.05,-105.34 320,-83.45 326.28,-80.52 332.4,-76.62 338.11,-72.33"/>
<polygon fill="black" stroke="black" points="340.56,-74.85 346.15,-65.85 336.17,-69.4 340.56,-74.85"/>
<text text-anchor="middle" x="262.5" y="-106.25" font-family="Times-Roman" font-size="14.00">0:1/0.4</text>
</g>
<!-- 1&#45;&gt;4 -->
<g id="edge3" class="edge">
<title>1&#45;&gt;4</title>
<path fill="none" stroke="black" d="M189.66,-55.5C218.27,-49.66 277.74,-41.68 320,-64.45 320.13,-64.52 331.89,-81.1 344.24,-98.55"/>
<polygon fill="black" stroke="black" points="341.66,-100.97 350.3,-107.11 347.38,-96.93 341.66,-100.97"/>
<text text-anchor="middle" x="262.5" y="-68.25" font-family="Times-Roman" font-size="14.00">0:&lt;epsilon&gt;/3</text>
</g>
<!-- 1&#45;&gt;3 -->
<g id="edge4" class="edge">
<title>1&#45;&gt;3</title>
<path fill="none" stroke="black" d="M183.96,-45.72C189.55,-39.82 196.89,-33.58 205,-30.45 243.93,-15.43 291.76,-19.74 326.32,-26.44"/>
<polygon fill="black" stroke="black" points="325.65,-29.88 336.15,-28.48 327.07,-23.02 325.65,-29.88"/>
<text text-anchor="middle" x="262.5" y="-34.25" font-family="Times-Roman" font-size="14.00">0:1/3</text>
</g>
</g>
</svg>
