<?xml version="1.0" encoding="UTF-8" standalone="no"?>
<!DOCTYPE svg PUBLIC "-//W3C//DTD SVG 1.1//EN"
 "http://www.w3.org/Graphics/SVG/1.1/DTD/svg11.dtd">
<!-- Generated by graphviz version 2.44.0 (0)
 -->
<!-- Title: FST Pages: 1 -->
<svg width="612pt" height="173pt"
 viewBox="0.00 0.00 612.00 172.59" xmlns="http://www.w3.org/2000/svg" xmlns:xlink="http://www.w3.org/1999/xlink">
<g id="graph0" class="graph" transform="scale(0.96 0.96) rotate(0) translate(4 175.89)">
<title>FST</title>
<polygon fill="white" stroke="transparent" points="-4,4 -4,-175.89 633.89,-175.89 633.89,4 -4,4"/>
<!-- 0 -->
<g id="node1" class="node">
<title>0</title>
<ellipse fill="none" stroke="black" stroke-width="2" cx="18" cy="-85.45" rx="18" ry="18"/>
<text text-anchor="middle" x="18" y="-81.75" font-family="Times-Roman" font-size="14.00">0</text>
</g>
<!-- 2 -->
<g id="node2" class="node">
<title>2</title>
<ellipse fill="none" stroke="black" cx="172" cy="-112.45" rx="18" ry="18"/>
<text text-anchor="middle" x="172" y="-108.75" font-family="Times-Roman" font-size="14.00">2</text>
</g>
<!-- 0&#45;&gt;2 -->
<g id="edge1" class="edge">
<title>0&#45;&gt;2</title>
<path fill="none" stroke="black" d="M35.85,-88.44C61.98,-93.08 112.54,-102.06 143.87,-107.63"/>
<polygon fill="black" stroke="black" points="143.62,-111.14 154.08,-109.44 144.84,-104.25 143.62,-111.14"/>
<text text-anchor="middle" x="95" y="-110.25" font-family="Times-Roman" font-size="14.00">0:&lt;epsilon&gt;</text>
</g>
<!-- 1 -->
<g id="node3" class="node">
<title>1</title>
<ellipse fill="none" stroke="black" cx="172" cy="-58.45" rx="18" ry="18"/>
<text text-anchor="middle" x="172" y="-54.75" font-family="Times-Roman" font-size="14.00">1</text>
</g>
<!-- 0&#45;&gt;1 -->
<g id="edge2" class="edge">
<title>0&#45;&gt;1</title>
<path fill="none" stroke="black" d="M34.67,-78.1C39.78,-75.97 45.54,-73.85 51,-72.45 82.15,-64.46 119.03,-61.02 143.6,-59.54"/>
<polygon fill="black" stroke="black" points="143.84,-63.03 153.64,-59.01 143.47,-56.04 143.84,-63.03"/>
<text text-anchor="middle" x="95" y="-76.25" font-family="Times-Roman" font-size="14.00">0:1</text>
</g>
<!-- 3 -->
<g id="node4" class="node">
<title>3</title>
<ellipse fill="none" stroke="black" cx="417" cy="-85.45" rx="18" ry="18"/>
<text text-anchor="middle" x="417" y="-81.75" font-family="Times-Roman" font-size="14.00">3</text>
</g>
<!-- 2&#45;&gt;3 -->
<g id="edge4" class="edge">
<title>2&#45;&gt;3</title>
<path fill="none" stroke="black" d="M190.09,-110.55C231.65,-105.93 338.33,-94.08 388.78,-88.47"/>
<polygon fill="black" stroke="black" points="389.38,-91.93 398.93,-87.34 388.61,-84.97 389.38,-91.93"/>
<text text-anchor="middle" x="294.5" y="-112.25" font-family="Times-Roman" font-size="14.00">&lt;epsilon&gt;:&lt;epsilon&gt;/0.4</text>
</g>
<!-- 1&#45;&gt;3 -->
<g id="edge3" class="edge">
<title>1&#45;&gt;3</title>
<path fill="none" stroke="black" d="M189.98,-57.51C226.21,-55.93 313.54,-54.43 384,-71.45 386.48,-72.04 389,-72.82 391.49,-73.71"/>
<polygon fill="black" stroke="black" points="390.17,-76.95 400.76,-77.48 392.81,-70.47 390.17,-76.95"/>
<text text-anchor="middle" x="294.5" y="-75.25" font-family="Times-Roman" font-size="14.00">&lt;epsilon&gt;:&lt;epsilon&gt;/3</text>
</g>
<!-- 5 -->
<g id="node5" class="node">
<title>5</title>
<ellipse fill="none" stroke="black" cx="591.45" cy="-133.45" rx="34.4" ry="34.4"/>
<ellipse fill="none" stroke="black" cx="591.45" cy="-133.45" rx="38.39" ry="38.39"/>
<text text-anchor="middle" x="591.45" y="-129.75" font-family="Times-Roman" font-size="14.00">5/1.9</text>
</g>
<!-- 3&#45;&gt;5 -->
<g id="edge5" class="edge">
<title>3&#45;&gt;5</title>
<path fill="none" stroke="black" d="M434.2,-91.28C439.24,-93.02 444.83,-94.88 450,-96.45 481.16,-105.89 516.63,-115.23 544.12,-122.15"/>
<polygon fill="black" stroke="black" points="543.31,-125.56 553.87,-124.59 545.01,-118.77 543.31,-125.56"/>
<text text-anchor="middle" x="494" y="-123.25" font-family="Times-Roman" font-size="14.00">0:&lt;epsilon&gt;</text>
</g>
<!-- 4 -->
<g id="node6" class="node">
<title>4</title>
<ellipse fill="none" stroke="black" cx="591.45" cy="-38.45" rx="34.4" ry="34.4"/>
<ellipse fill="none" stroke="black" cx="591.45" cy="-38.45" rx="38.39" ry="38.39"/>
<text text-anchor="middle" x="591.45" y="-34.75" font-family="Times-Roman" font-size="14.00">4/1.1</text>
</g>
<!-- 3&#45;&gt;4 -->
<g id="edge6" class="edge">
<title>3&#45;&gt;4</title>
<path fill="none" stroke="black" d="M434.53,-80.94C459.58,-74.11 508.05,-60.9 544.33,-51.02"/>
<polygon fill="black" stroke="black" points="545.48,-54.33 554.21,-48.32 543.64,-47.58 545.48,-54.33"/>
<text text-anchor="middle" x="494" y="-81.25" font-family="Times-Roman" font-size="14.00">0:1</text>
</g>
</g>
</svg>
