<?xml version="1.0" encoding="UTF-8" standalone="no"?>
<!DOCTYPE svg PUBLIC "-//W3C//DTD SVG 1.1//EN"
 "http://www.w3.org/Graphics/SVG/1.1/DTD/svg11.dtd">
<!-- Generated by graphviz version 2.44.0 (0)
 -->
<!-- Title: FST Pages: 1 -->
<svg width="612pt" height="63pt"
 viewBox="0.00 0.00 612.00 62.56" xmlns="http://www.w3.org/2000/svg" xmlns:xlink="http://www.w3.org/1999/xlink">
<g id="graph0" class="graph" transform="scale(0.3 0.3) rotate(0) translate(4 207.15)">
<title>FST</title>
<polygon fill="white" stroke="transparent" points="-4,4 -4,-207.15 2061.49,-207.15 2061.49,4 -4,4"/>
<!-- 11 -->
<g id="node1" class="node">
<title>11</title>
<ellipse fill="none" stroke="black" stroke-width="2" cx="22.75" cy="-147.15" rx="23" ry="23"/>
<text text-anchor="middle" x="22.75" y="-143.45" font-family="Times-Roman" font-size="14.00">11</text>
</g>
<!-- 12 -->
<g id="node2" class="node">
<title>12</title>
<ellipse fill="none" stroke="black" cx="121.24" cy="-147.15" rx="23" ry="23"/>
<text text-anchor="middle" x="121.24" y="-143.45" font-family="Times-Roman" font-size="14.00">12</text>
</g>
<!-- 11&#45;&gt;12 -->
<g id="edge1" class="edge">
<title>11&#45;&gt;12</title>
<path fill="none" stroke="black" d="M45.64,-147.15C58.23,-147.15 74.26,-147.15 88.24,-147.15"/>
<polygon fill="black" stroke="black" points="88.43,-150.65 98.43,-147.15 88.43,-143.65 88.43,-150.65"/>
<text text-anchor="middle" x="72" y="-150.95" font-family="Times-Roman" font-size="14.00">0:0</text>
</g>
<!-- 10 -->
<g id="node13" class="node">
<title>10</title>
<ellipse fill="none" stroke="black" cx="348.74" cy="-147.15" rx="23" ry="23"/>
<text text-anchor="middle" x="348.74" y="-143.45" font-family="Times-Roman" font-size="14.00">10</text>
</g>
<!-- 12&#45;&gt;10 -->
<g id="edge16" class="edge">
<title>12&#45;&gt;10</title>
<path fill="none" stroke="black" d="M144.28,-147.15C184.37,-147.15 269.41,-147.15 315.84,-147.15"/>
<polygon fill="black" stroke="black" points="315.95,-150.65 325.95,-147.15 315.95,-143.65 315.95,-150.65"/>
<text text-anchor="middle" x="234.99" y="-150.95" font-family="Times-Roman" font-size="14.00">&lt;epsilon&gt;:&lt;epsilon&gt;</text>
</g>
<!-- 0 -->
<g id="node3" class="node">
<title>0</title>
<ellipse fill="none" stroke="black" cx="1942.49" cy="-107.15" rx="18" ry="18"/>
<text text-anchor="middle" x="1942.49" y="-103.45" font-family="Times-Roman" font-size="14.00">0</text>
</g>
<!-- 1 -->
<g id="node4" class="node">
<title>1</title>
<ellipse fill="none" stroke="black" cx="2035.49" cy="-107.15" rx="18" ry="18"/>
<ellipse fill="none" stroke="black" cx="2035.49" cy="-107.15" rx="22" ry="22"/>
<text text-anchor="middle" x="2035.49" y="-103.45" font-family="Times-Roman" font-size="14.00">1</text>
</g>
<!-- 0&#45;&gt;1 -->
<g id="edge2" class="edge">
<title>0&#45;&gt;1</title>
<path fill="none" stroke="black" d="M1960.6,-107.15C1972.5,-107.15 1988.71,-107.15 2002.92,-107.15"/>
<polygon fill="black" stroke="black" points="2003.28,-110.65 2013.28,-107.15 2003.28,-103.65 2003.28,-110.65"/>
<text text-anchor="middle" x="1986.99" y="-110.95" font-family="Times-Roman" font-size="14.00">1:1</text>
</g>
<!-- 2 -->
<g id="node5" class="node">
<title>2</title>
<ellipse fill="none" stroke="black" cx="1635.49" cy="-107.15" rx="18" ry="18"/>
<text text-anchor="middle" x="1635.49" y="-103.45" font-family="Times-Roman" font-size="14.00">2</text>
</g>
<!-- 3 -->
<g id="node6" class="node">
<title>3</title>
<ellipse fill="none" stroke="black" cx="1724.49" cy="-107.15" rx="18" ry="18"/>
<text text-anchor="middle" x="1724.49" y="-103.45" font-family="Times-Roman" font-size="14.00">3</text>
</g>
<!-- 2&#45;&gt;3 -->
<g id="edge3" class="edge">
<title>2&#45;&gt;3</title>
<path fill="none" stroke="black" d="M1653.68,-107.15C1665.83,-107.15 1682.37,-107.15 1696.31,-107.15"/>
<polygon fill="black" stroke="black" points="1696.34,-110.65 1706.34,-107.15 1696.34,-103.65 1696.34,-110.65"/>
<text text-anchor="middle" x="1679.99" y="-110.95" font-family="Times-Roman" font-size="14.00">1:1</text>
</g>
<!-- 3&#45;&gt;0 -->
<g id="edge4" class="edge">
<title>3&#45;&gt;0</title>
<path fill="none" stroke="black" d="M1742.8,-107.15C1780.25,-107.15 1869.07,-107.15 1914.18,-107.15"/>
<polygon fill="black" stroke="black" points="1914.39,-110.65 1924.39,-107.15 1914.39,-103.65 1914.39,-110.65"/>
<text text-anchor="middle" x="1833.49" y="-110.95" font-family="Times-Roman" font-size="14.00">&lt;epsilon&gt;:&lt;epsilon&gt;</text>
</g>
<!-- 4 -->
<g id="node7" class="node">
<title>4</title>
<ellipse fill="none" stroke="black" cx="1328.49" cy="-107.15" rx="18" ry="18"/>
<text text-anchor="middle" x="1328.49" y="-103.45" font-family="Times-Roman" font-size="14.00">4</text>
</g>
<!-- 5 -->
<g id="node8" class="node">
<title>5</title>
<ellipse fill="none" stroke="black" cx="1417.49" cy="-107.15" rx="18" ry="18"/>
<text text-anchor="middle" x="1417.49" y="-103.45" font-family="Times-Roman" font-size="14.00">5</text>
</g>
<!-- 4&#45;&gt;5 -->
<g id="edge5" class="edge">
<title>4&#45;&gt;5</title>
<path fill="none" stroke="black" d="M1346.68,-107.15C1358.83,-107.15 1375.37,-107.15 1389.31,-107.15"/>
<polygon fill="black" stroke="black" points="1389.34,-110.65 1399.34,-107.15 1389.34,-103.65 1389.34,-110.65"/>
<text text-anchor="middle" x="1372.99" y="-110.95" font-family="Times-Roman" font-size="14.00">1:1</text>
</g>
<!-- 5&#45;&gt;2 -->
<g id="edge6" class="edge">
<title>5&#45;&gt;2</title>
<path fill="none" stroke="black" d="M1435.8,-107.15C1473.25,-107.15 1562.07,-107.15 1607.18,-107.15"/>
<polygon fill="black" stroke="black" points="1607.39,-110.65 1617.39,-107.15 1607.39,-103.65 1607.39,-110.65"/>
<text text-anchor="middle" x="1526.49" y="-110.95" font-family="Times-Roman" font-size="14.00">&lt;epsilon&gt;:&lt;epsilon&gt;</text>
</g>
<!-- 6 -->
<g id="node9" class="node">
<title>6</title>
<ellipse fill="none" stroke="black" cx="571.49" cy="-105.15" rx="18" ry="18"/>
<text text-anchor="middle" x="571.49" y="-101.45" font-family="Times-Roman" font-size="14.00">6</text>
</g>
<!-- 8 -->
<g id="node10" class="node">
<title>8</title>
<ellipse fill="none" stroke="black" cx="847.49" cy="-83.15" rx="18" ry="18"/>
<text text-anchor="middle" x="847.49" y="-79.45" font-family="Times-Roman" font-size="14.00">8</text>
</g>
<!-- 6&#45;&gt;8 -->
<g id="edge7" class="edge">
<title>6&#45;&gt;8</title>
<path fill="none" stroke="black" d="M589.63,-103.77C635.76,-100.07 762.85,-89.87 819.1,-85.35"/>
<polygon fill="black" stroke="black" points="819.67,-88.82 829.35,-84.53 819.11,-81.84 819.67,-88.82"/>
<text text-anchor="middle" x="680.49" y="-106.95" font-family="Times-Roman" font-size="14.00">&lt;epsilon&gt;:&lt;epsilon&gt;</text>
</g>
<!-- 7 -->
<g id="node11" class="node">
<title>7</title>
<ellipse fill="none" stroke="black" cx="847.49" cy="-29.15" rx="18" ry="18"/>
<text text-anchor="middle" x="847.49" y="-25.45" font-family="Times-Roman" font-size="14.00">7</text>
</g>
<!-- 6&#45;&gt;7 -->
<g id="edge8" class="edge">
<title>6&#45;&gt;7</title>
<path fill="none" stroke="black" d="M582.83,-90.91C588.47,-84.18 596.03,-76.64 604.49,-72.15 665.08,-39.96 688.93,-57.16 756.49,-45.15 777.68,-41.39 801.68,-37.12 819.56,-33.94"/>
<polygon fill="black" stroke="black" points="820.34,-37.36 829.57,-32.16 819.11,-30.46 820.34,-37.36"/>
<text text-anchor="middle" x="680.49" y="-75.95" font-family="Times-Roman" font-size="14.00">0:0</text>
</g>
<!-- 9 -->
<g id="node12" class="node">
<title>9</title>
<ellipse fill="none" stroke="black" cx="1052.49" cy="-107.15" rx="18" ry="18"/>
<text text-anchor="middle" x="1052.49" y="-103.45" font-family="Times-Roman" font-size="14.00">9</text>
</g>
<!-- 8&#45;&gt;9 -->
<g id="edge11" class="edge">
<title>8&#45;&gt;9</title>
<path fill="none" stroke="black" d="M865.45,-85.16C900.6,-89.31 981.67,-98.9 1024.25,-103.93"/>
<polygon fill="black" stroke="black" points="1024.09,-107.44 1034.43,-105.13 1024.92,-100.48 1024.09,-107.44"/>
<text text-anchor="middle" x="949.99" y="-99.95" font-family="Times-Roman" font-size="14.00">1:1</text>
</g>
<!-- 7&#45;&gt;4 -->
<g id="edge9" class="edge">
<title>7&#45;&gt;4</title>
<path fill="none" stroke="black" d="M865.6,-30.87C909.47,-35.37 1029.43,-48.36 1128.49,-65.15 1190.7,-75.7 1263.02,-91.99 1301.03,-100.86"/>
<polygon fill="black" stroke="black" points="1300.27,-104.28 1310.8,-103.16 1301.87,-97.46 1300.27,-104.28"/>
<text text-anchor="middle" x="1052.49" y="-68.95" font-family="Times-Roman" font-size="14.00">&lt;epsilon&gt;:&lt;epsilon&gt;</text>
</g>
<!-- 7&#45;&gt;6 -->
<g id="edge10" class="edge">
<title>7&#45;&gt;6</title>
<path fill="none" stroke="black" d="M830.31,-23.21C788.68,-9.05 676.09,22.1 604.49,-26.15 587.66,-37.49 579.68,-59.34 575.9,-77.19"/>
<polygon fill="black" stroke="black" points="572.43,-76.67 574.12,-87.13 579.33,-77.9 572.43,-76.67"/>
<text text-anchor="middle" x="680.49" y="-29.95" font-family="Times-Roman" font-size="14.00">&lt;epsilon&gt;:&lt;epsilon&gt;</text>
</g>
<!-- 9&#45;&gt;4 -->
<g id="edge12" class="edge">
<title>9&#45;&gt;4</title>
<path fill="none" stroke="black" d="M1070.63,-107.15C1116.76,-107.15 1243.85,-107.15 1300.1,-107.15"/>
<polygon fill="black" stroke="black" points="1300.35,-110.65 1310.35,-107.15 1300.35,-103.65 1300.35,-110.65"/>
<text text-anchor="middle" x="1219.49" y="-110.95" font-family="Times-Roman" font-size="14.00">&lt;epsilon&gt;:&lt;epsilon&gt;</text>
</g>
<!-- 9&#45;&gt;6 -->
<g id="edge13" class="edge">
<title>9&#45;&gt;6</title>
<path fill="none" stroke="black" d="M1034.26,-108.96C1016.16,-110.8 986.85,-113.59 961.49,-115.15 954.31,-115.59 640.42,-131.1 604.49,-122.15 601.63,-121.44 598.74,-120.42 595.93,-119.22"/>
<polygon fill="black" stroke="black" points="597.37,-116.03 586.85,-114.7 594.25,-122.29 597.37,-116.03"/>
<text text-anchor="middle" x="847.49" y="-125.95" font-family="Times-Roman" font-size="14.00">&lt;epsilon&gt;:&lt;epsilon&gt;</text>
</g>
<!-- 10&#45;&gt;4 -->
<g id="edge14" class="edge">
<title>10&#45;&gt;4</title>
<path fill="none" stroke="black" d="M370.81,-153.74C409.8,-165.33 496.04,-188.15 570.49,-188.15 570.49,-188.15 570.49,-188.15 1053.49,-188.15 1164.52,-188.15 1192.94,-168.7 1295.49,-126.15 1298.38,-124.95 1301.32,-123.53 1304.19,-122"/>
<polygon fill="black" stroke="black" points="1306.04,-124.98 1312.97,-116.96 1302.56,-118.91 1306.04,-124.98"/>
<text text-anchor="middle" x="847.49" y="-191.95" font-family="Times-Roman" font-size="14.00">&lt;epsilon&gt;:&lt;epsilon&gt;</text>
</g>
<!-- 10&#45;&gt;6 -->
<g id="edge15" class="edge">
<title>10&#45;&gt;6</title>
<path fill="none" stroke="black" d="M371.31,-143.05C411.8,-135.34 499.1,-118.73 543.45,-110.3"/>
<polygon fill="black" stroke="black" points="544.32,-113.69 553.49,-108.39 543.01,-106.82 544.32,-113.69"/>
<text text-anchor="middle" x="462.49" y="-142.95" font-family="Times-Roman" font-size="14.00">&lt;epsilon&gt;:&lt;epsilon&gt;</text>
</g>
</g>
</svg>
