<?xml version="1.0" encoding="UTF-8" standalone="no"?>
<!DOCTYPE svg PUBLIC "-//W3C//DTD SVG 1.1//EN"
 "http://www.w3.org/Graphics/SVG/1.1/DTD/svg11.dtd">
<!-- Generated by graphviz version 2.44.0 (0)
 -->
<!-- Title: FST Pages: 1 -->
<svg width="612pt" height="90pt"
 viewBox="0.00 0.00 612.00 90.36" xmlns="http://www.w3.org/2000/svg" xmlns:xlink="http://www.w3.org/1999/xlink">
<g id="graph0" class="graph" transform="scale(0.09 0.09) rotate(0) translate(4 1036.28)">
<title>FST</title>
<polygon fill="white" stroke="transparent" points="-4,4 -4,-1036.28 7041.75,-1036.28 7041.75,4 -4,4"/>
<!-- 1 -->
<g id="node1" class="node">
<title>1</title>
<ellipse fill="none" stroke="black" stroke-width="2" cx="18" cy="-140.7" rx="18" ry="18"/>
<text text-anchor="middle" x="18" y="-137" font-family="Times-Roman" font-size="14.00">1</text>
</g>
<!-- 0 -->
<g id="node2" class="node">
<title>0</title>
<ellipse fill="none" stroke="black" cx="337" cy="-548.7" rx="51.99" ry="51.99"/>
<ellipse fill="none" stroke="black" cx="337" cy="-548.7" rx="55.99" ry="55.99"/>
<text text-anchor="middle" x="337" y="-545" font-family="Times-Roman" font-size="14.00">0/2.9957</text>
</g>
<!-- 1&#45;&gt;0 -->
<g id="edge1" class="edge">
<title>1&#45;&gt;0</title>
<path fill="none" stroke="black" d="M25.38,-157.25C31.16,-171.42 40.39,-192.1 51,-208.7 123.45,-322.04 229.69,-438.98 289.9,-501.85"/>
<polygon fill="black" stroke="black" points="287.55,-504.47 297.01,-509.25 292.6,-499.61 287.55,-504.47"/>
<text text-anchor="middle" x="158.5" y="-473.5" font-family="Times-Roman" font-size="14.00">&lt;epsilon&gt;:&lt;epsilon&gt;/0.53063</text>
</g>
<!-- 16 -->
<g id="node3" class="node">
<title>16</title>
<ellipse fill="none" stroke="black" cx="337" cy="-48.7" rx="23" ry="23"/>
<text text-anchor="middle" x="337" y="-45" font-family="Times-Roman" font-size="14.00">16</text>
</g>
<!-- 1&#45;&gt;16 -->
<g id="edge2" class="edge">
<title>1&#45;&gt;16</title>
<path fill="none" stroke="black" d="M27.67,-125.07C33.23,-116.53 41.23,-106.53 51,-100.7 132.37,-52.11 248.37,-46.88 303.93,-47.5"/>
<polygon fill="black" stroke="black" points="304.14,-51 314.2,-47.69 304.27,-44 304.14,-51"/>
<text text-anchor="middle" x="158.5" y="-104.5" font-family="Times-Roman" font-size="14.00">Build:Build/2.4849</text>
</g>
<!-- 24 -->
<g id="node4" class="node">
<title>24</title>
<ellipse fill="none" stroke="black" cx="337" cy="-111.7" rx="23" ry="23"/>
<text text-anchor="middle" x="337" y="-108" font-family="Times-Roman" font-size="14.00">24</text>
</g>
<!-- 1&#45;&gt;24 -->
<g id="edge3" class="edge">
<title>1&#45;&gt;24</title>
<path fill="none" stroke="black" d="M36.04,-139.14C86.72,-134.5 237.07,-120.75 303.65,-114.66"/>
<polygon fill="black" stroke="black" points="304.32,-118.11 313.96,-113.71 303.68,-111.14 304.32,-118.11"/>
<text text-anchor="middle" x="158.5" y="-141.5" font-family="Times-Roman" font-size="14.00">look:look/1.0986</text>
</g>
<!-- 3 -->
<g id="node5" class="node">
<title>3</title>
<ellipse fill="none" stroke="black" cx="337" cy="-191.7" rx="18" ry="18"/>
<text text-anchor="middle" x="337" y="-188" font-family="Times-Roman" font-size="14.00">3</text>
</g>
<!-- 1&#45;&gt;3 -->
<g id="edge4" class="edge">
<title>1&#45;&gt;3</title>
<path fill="none" stroke="black" d="M33.86,-149.45C39.12,-152.18 45.17,-154.94 51,-156.7 142.6,-184.32 257.03,-190.2 308.58,-191.41"/>
<polygon fill="black" stroke="black" points="308.81,-194.91 318.88,-191.61 308.95,-187.91 308.81,-194.91"/>
<text text-anchor="middle" x="158.5" y="-193.5" font-family="Times-Roman" font-size="14.00">Try:Try/2.4849</text>
</g>
<!-- 13 -->
<g id="node6" class="node">
<title>13</title>
<ellipse fill="none" stroke="black" cx="6970.06" cy="-943.7" rx="63.88" ry="63.88"/>
<ellipse fill="none" stroke="black" cx="6970.06" cy="-943.7" rx="67.89" ry="67.89"/>
<text text-anchor="middle" x="6970.06" y="-940" font-family="Times-Roman" font-size="14.00">13/0.40547</text>
</g>
<!-- 0&#45;&gt;13 -->
<g id="edge5" class="edge">
<title>0&#45;&gt;13</title>
<path fill="none" stroke="black" d="M339.1,-604.98C342.4,-709.28 355.55,-926.54 407.99,-976.7 509.39,-1073.67 581.19,-1013.7 721.49,-1013.7 721.49,-1013.7 721.49,-1013.7 6590.67,-1013.7 6723.55,-1013.7 6758.74,-1010.09 6887.36,-976.7 6890.9,-975.78 6894.49,-974.74 6898.1,-973.62"/>
<polygon fill="black" stroke="black" points="6899.23,-976.93 6907.63,-970.47 6897.03,-970.29 6899.23,-976.93"/>
<text text-anchor="middle" x="4246.99" y="-1017.5" font-family="Times-Roman" font-size="14.00">.:./2.3026</text>
</g>
<!-- 7 -->
<g id="node7" class="node">
<title>7</title>
<ellipse fill="none" stroke="black" cx="1556.49" cy="-249.7" rx="18" ry="18"/>
<text text-anchor="middle" x="1556.49" y="-246" font-family="Times-Roman" font-size="14.00">7</text>
</g>
<!-- 0&#45;&gt;7 -->
<g id="edge6" class="edge">
<title>0&#45;&gt;7</title>
<path fill="none" stroke="black" d="M349.15,-493.65C358.88,-460.55 376.57,-420.7 407.99,-398.7 419.81,-390.42 1429.13,-311.71 1442.99,-307.7 1475.87,-298.18 1510.38,-278.77 1532.37,-265.03"/>
<polygon fill="black" stroke="black" points="1534.44,-267.87 1540.99,-259.54 1530.67,-261.97 1534.44,-267.87"/>
<text text-anchor="middle" x="931.99" y="-363.5" font-family="Times-Roman" font-size="14.00">a:a/2.3026</text>
</g>
<!-- 10 -->
<g id="node8" class="node">
<title>10</title>
<ellipse fill="none" stroke="black" cx="3364.99" cy="-722.7" rx="23" ry="23"/>
<text text-anchor="middle" x="3364.99" y="-719" font-family="Times-Roman" font-size="14.00">10</text>
</g>
<!-- 0&#45;&gt;10 -->
<g id="edge7" class="edge">
<title>0&#45;&gt;10</title>
<path fill="none" stroke="black" d="M341.36,-604.6C347.89,-692.32 365.56,-856.22 407.99,-893.7 512.72,-986.21 581.75,-917.7 721.49,-917.7 721.49,-917.7 721.49,-917.7 1778.49,-917.7 2106.26,-917.7 2963.15,-943.62 3246.99,-779.7 3256.61,-774.14 3253.06,-766.31 3261.99,-759.7 3282.93,-744.18 3311.03,-734.63 3332.44,-729.13"/>
<polygon fill="black" stroke="black" points="3333.44,-732.48 3342.34,-726.74 3331.8,-725.68 3333.44,-732.48"/>
<text text-anchor="middle" x="1777.49" y="-921.5" font-family="Times-Roman" font-size="14.00">across:across/2.9957</text>
</g>
<!-- 15 -->
<g id="node9" class="node">
<title>15</title>
<ellipse fill="none" stroke="black" cx="722.49" cy="-256.7" rx="23" ry="23"/>
<text text-anchor="middle" x="722.49" y="-253" font-family="Times-Roman" font-size="14.00">15</text>
</g>
<!-- 0&#45;&gt;15 -->
<g id="edge8" class="edge">
<title>0&#45;&gt;15</title>
<path fill="none" stroke="black" d="M343.72,-493.03C352.65,-418.42 372.67,-292.03 407.99,-263.7 450.5,-229.59 618.29,-244.55 689.38,-252.69"/>
<polygon fill="black" stroke="black" points="689.2,-256.19 699.54,-253.88 690.01,-249.24 689.2,-256.19"/>
<text text-anchor="middle" x="515.49" y="-267.5" font-family="Times-Roman" font-size="14.00">Build:Build/2.9957</text>
</g>
<!-- 18 -->
<g id="node10" class="node">
<title>18</title>
<ellipse fill="none" stroke="black" cx="5804.48" cy="-728.7" rx="23" ry="23"/>
<text text-anchor="middle" x="5804.48" y="-725" font-family="Times-Roman" font-size="14.00">18</text>
</g>
<!-- 0&#45;&gt;18 -->
<g id="edge9" class="edge">
<title>0&#45;&gt;18</title>
<path fill="none" stroke="black" d="M342.29,-604.83C348.93,-649.46 365.7,-709.57 407.99,-741.7 519.27,-826.23 581.75,-765.7 721.49,-765.7 721.49,-765.7 721.49,-765.7 2229.49,-765.7 2688.64,-765.7 2802.9,-792.92 3261.99,-800.7 3545.96,-805.51 3617.01,-798.86 3900.99,-794.7 4706.11,-782.9 4924.22,-931.01 5712.48,-766.7 5734.4,-762.13 5757.67,-752.31 5775.19,-743.8"/>
<polygon fill="black" stroke="black" points="5776.92,-746.85 5784.29,-739.24 5773.78,-740.59 5776.92,-746.85"/>
<text text-anchor="middle" x="3364.99" y="-805.5" font-family="Times-Roman" font-size="14.00">language:language/2.3026</text>
</g>
<!-- 23 -->
<g id="node11" class="node">
<title>23</title>
<ellipse fill="none" stroke="black" cx="722.49" cy="-434.7" rx="23" ry="23"/>
<text text-anchor="middle" x="722.49" y="-431" font-family="Times-Roman" font-size="14.00">23</text>
</g>
<!-- 0&#45;&gt;23 -->
<g id="edge10" class="edge">
<title>0&#45;&gt;23</title>
<path fill="none" stroke="black" d="M368.83,-502.32C379.66,-489.62 392.94,-477.29 407.99,-469.7 450.82,-448.1 575.4,-456.66 622.99,-450.7 645.47,-447.88 670.69,-443.77 689.98,-440.41"/>
<polygon fill="black" stroke="black" points="690.79,-443.83 700.04,-438.64 689.58,-436.93 690.79,-443.83"/>
<text text-anchor="middle" x="515.49" y="-473.5" font-family="Times-Roman" font-size="14.00">look:look/2.9957</text>
</g>
<!-- 20 -->
<g id="node12" class="node">
<title>20</title>
<ellipse fill="none" stroke="black" cx="6385.47" cy="-843.7" rx="23" ry="23"/>
<text text-anchor="middle" x="6385.47" y="-840" font-family="Times-Roman" font-size="14.00">20</text>
</g>
<!-- 0&#45;&gt;20 -->
<g id="edge11" class="edge">
<title>0&#45;&gt;20</title>
<path fill="none" stroke="black" d="M338.38,-604.8C342.04,-658.17 356.61,-736.28 407.99,-777.7 516.84,-865.44 581.68,-803.7 721.49,-803.7 721.49,-803.7 721.49,-803.7 2229.49,-803.7 3024.87,-803.7 3222.61,-866.7 4017.99,-866.7 4017.99,-866.7 4017.99,-866.7 5603.48,-866.7 5894.62,-866.7 6246.54,-850.53 6352.69,-845.3"/>
<polygon fill="black" stroke="black" points="6352.93,-848.8 6362.74,-844.81 6352.58,-841.81 6352.93,-848.8"/>
<text text-anchor="middle" x="3797.99" y="-869.5" font-family="Times-Roman" font-size="14.00">model:model/2.9957</text>
</g>
<!-- 26 -->
<g id="node13" class="node">
<title>26</title>
<ellipse fill="none" stroke="black" cx="4246.99" cy="-181.7" rx="23" ry="23"/>
<text text-anchor="middle" x="4246.99" y="-178" font-family="Times-Roman" font-size="14.00">26</text>
</g>
<!-- 0&#45;&gt;26 -->
<g id="edge12" class="edge">
<title>0&#45;&gt;26</title>
<path fill="none" stroke="black" d="M341.38,-492.54C347.96,-403.92 365.72,-237.64 407.99,-198.7 476.11,-135.94 729.76,-159.18 821.99,-150.7 1444.12,-93.48 1602.74,-127.7 2227.49,-127.7 2227.49,-127.7 2227.49,-127.7 3798.99,-127.7 3942.94,-127.7 3979.78,-129.36 4121.99,-151.7 4153.96,-156.72 4189.84,-165.78 4214.74,-172.64"/>
<polygon fill="black" stroke="black" points="4214.13,-176.1 4224.7,-175.42 4216.01,-169.36 4214.13,-176.1"/>
<text text-anchor="middle" x="2228.49" y="-131.5" font-family="Times-Roman" font-size="14.00">sentence:sentence/2.9957</text>
</g>
<!-- 29 -->
<g id="node14" class="node">
<title>29</title>
<ellipse fill="none" stroke="black" cx="5115.48" cy="-618.7" rx="23" ry="23"/>
<text text-anchor="middle" x="5115.48" y="-615" font-family="Times-Roman" font-size="14.00">29</text>
</g>
<!-- 0&#45;&gt;29 -->
<g id="edge13" class="edge">
<title>0&#45;&gt;29</title>
<path fill="none" stroke="black" d="M374.08,-591.14C384.17,-600.79 395.75,-610.13 407.99,-616.7 533.64,-684.08 578.92,-684.7 721.49,-684.7 721.49,-684.7 721.49,-684.7 2689.49,-684.7 3472.38,-684.7 3668.1,-682.7 4450.99,-682.7 4450.99,-682.7 4450.99,-682.7 4759.23,-682.7 4880.97,-682.7 5022.52,-645.84 5083.71,-628.07"/>
<polygon fill="black" stroke="black" points="5084.89,-631.37 5093.5,-625.19 5082.92,-624.65 5084.89,-631.37"/>
<text text-anchor="middle" x="2913.99" y="-687.5" font-family="Times-Roman" font-size="14.00">the:the/2.9957</text>
</g>
<!-- 2 -->
<g id="node15" class="node">
<title>2</title>
<ellipse fill="none" stroke="black" cx="722.49" cy="-502.7" rx="18" ry="18"/>
<text text-anchor="middle" x="722.49" y="-499" font-family="Times-Roman" font-size="14.00">2</text>
</g>
<!-- 0&#45;&gt;2 -->
<g id="edge14" class="edge">
<title>0&#45;&gt;2</title>
<path fill="none" stroke="black" d="M393.21,-547.08C450.85,-544.78 543.72,-539.33 622.99,-526.7 647.74,-522.75 675.44,-515.77 695.14,-510.35"/>
<polygon fill="black" stroke="black" points="696.24,-513.68 704.93,-507.6 694.35,-506.94 696.24,-513.68"/>
<text text-anchor="middle" x="515.49" y="-549.5" font-family="Times-Roman" font-size="14.00">Try:Try/2.9957</text>
</g>
<!-- 4 -->
<g id="node16" class="node">
<title>4</title>
<ellipse fill="none" stroke="black" cx="2458.49" cy="-509.7" rx="18" ry="18"/>
<text text-anchor="middle" x="2458.49" y="-506" font-family="Times-Roman" font-size="14.00">4</text>
</g>
<!-- 0&#45;&gt;4 -->
<g id="edge15" class="edge">
<title>0&#45;&gt;4</title>
<path fill="none" stroke="black" d="M391.71,-561.95C397.18,-563.01 402.68,-563.95 407.99,-564.7 546.17,-584.09 581.95,-581.7 721.49,-581.7 721.49,-581.7 721.49,-581.7 2003.99,-581.7 2168.15,-581.7 2361.66,-535.11 2431.07,-516.88"/>
<polygon fill="black" stroke="black" points="2431.99,-520.26 2440.76,-514.31 2430.2,-513.49 2431.99,-520.26"/>
<text text-anchor="middle" x="1337.49" y="-585.5" font-family="Times-Roman" font-size="14.00">&lt;unk&gt;:&lt;unk&gt;/1.204</text>
</g>
<!-- 16&#45;&gt;15 -->
<g id="edge49" class="edge">
<title>16&#45;&gt;15</title>
<path fill="none" stroke="black" d="M359.18,-42.76C412.05,-29.37 550.71,-3.29 622.99,-74.7 646.04,-97.46 618.95,-193.49 637.99,-219.7 650.2,-236.5 671.78,-245.8 689.95,-250.87"/>
<polygon fill="black" stroke="black" points="689.33,-254.32 699.88,-253.33 691.01,-247.53 689.33,-254.32"/>
<text text-anchor="middle" x="515.49" y="-78.5" font-family="Times-Roman" font-size="14.00">&lt;epsilon&gt;:&lt;epsilon&gt;/0.41552</text>
</g>
<!-- 17 -->
<g id="node27" class="node">
<title>17</title>
<ellipse fill="none" stroke="black" cx="1136.99" cy="-166.7" rx="23" ry="23"/>
<text text-anchor="middle" x="1136.99" y="-163" font-family="Times-Roman" font-size="14.00">17</text>
</g>
<!-- 16&#45;&gt;17 -->
<g id="edge50" class="edge">
<title>16&#45;&gt;17</title>
<path fill="none" stroke="black" d="M358.83,-41.48C372.6,-37.1 391.14,-31.94 407.99,-29.7 502.71,-17.07 527.58,-24.53 622.99,-29.7 705.13,-34.15 726.8,-31.35 806.99,-49.7 920.72,-75.72 1049.38,-128.74 1106.25,-153.46"/>
<polygon fill="black" stroke="black" points="1105.14,-156.79 1115.7,-157.59 1107.95,-150.38 1105.14,-156.79"/>
<text text-anchor="middle" x="722.49" y="-53.5" font-family="Times-Roman" font-size="14.00">a:a/0.57982</text>
</g>
<!-- 24&#45;&gt;23 -->
<g id="edge64" class="edge">
<title>24&#45;&gt;23</title>
<path fill="none" stroke="black" d="M359.88,-109.82C413.73,-106.53 553.36,-106.3 622.99,-183.7 654.52,-218.74 622.68,-244.11 637.99,-288.7 653.39,-333.55 682.86,-380.26 702.35,-408.41"/>
<polygon fill="black" stroke="black" points="699.68,-410.71 708.3,-416.88 705.41,-406.68 699.68,-410.71"/>
<text text-anchor="middle" x="515.49" y="-187.5" font-family="Times-Roman" font-size="14.00">&lt;epsilon&gt;:&lt;epsilon&gt;/1.1087</text>
</g>
<!-- 25 -->
<g id="node30" class="node">
<title>25</title>
<ellipse fill="none" stroke="black" cx="1777.49" cy="-363.7" rx="23" ry="23"/>
<text text-anchor="middle" x="1777.49" y="-360" font-family="Times-Roman" font-size="14.00">25</text>
</g>
<!-- 24&#45;&gt;25 -->
<g id="edge65" class="edge">
<title>24&#45;&gt;25</title>
<path fill="none" stroke="black" d="M359.73,-108.03C407.79,-100.62 526.46,-86.16 622.99,-105.7 670.04,-115.22 775.99,-175.98 821.99,-189.7 1175.32,-295.08 1622.27,-347.46 1744.41,-360.43"/>
<polygon fill="black" stroke="black" points="1744.26,-363.93 1754.57,-361.5 1744.99,-356.97 1744.26,-363.93"/>
<text text-anchor="middle" x="931.99" y="-249.5" font-family="Times-Roman" font-size="14.00">&lt;unk&gt;:&lt;unk&gt;/0.24846</text>
</g>
<!-- 3&#45;&gt;2 -->
<g id="edge18" class="edge">
<title>3&#45;&gt;2</title>
<path fill="none" stroke="black" d="M354.93,-194.64C369.08,-197.04 389.81,-200.38 407.99,-202.7 431.8,-205.73 606.32,-206.42 622.99,-223.7 660.56,-262.63 606.88,-422.43 637.99,-466.7 650.94,-485.11 675.37,-494.18 694.47,-498.6"/>
<polygon fill="black" stroke="black" points="693.94,-502.07 704.43,-500.61 695.32,-495.2 693.94,-502.07"/>
<text text-anchor="middle" x="515.49" y="-227.5" font-family="Times-Roman" font-size="14.00">&lt;epsilon&gt;:&lt;epsilon&gt;/0.41552</text>
</g>
<!-- 5 -->
<g id="node17" class="node">
<title>5</title>
<ellipse fill="none" stroke="black" cx="1337.49" cy="-452.7" rx="18" ry="18"/>
<text text-anchor="middle" x="1337.49" y="-449" font-family="Times-Roman" font-size="14.00">5</text>
</g>
<!-- 3&#45;&gt;5 -->
<g id="edge19" class="edge">
<title>3&#45;&gt;5</title>
<path fill="none" stroke="black" d="M355.19,-191.08C435.71,-188.38 772.91,-178.97 806.99,-209.7 842,-241.26 789.52,-280.52 821.99,-314.7 890.61,-386.92 944.58,-336.77 1041.99,-357.7 1120.09,-374.47 1141.35,-373.02 1216.99,-398.7 1250.91,-410.21 1288.27,-427.97 1312.03,-439.94"/>
<polygon fill="black" stroke="black" points="1310.54,-443.11 1321.03,-444.53 1313.72,-436.87 1310.54,-443.11"/>
<text text-anchor="middle" x="722.49" y="-213.5" font-family="Times-Roman" font-size="14.00">&lt;unk&gt;:&lt;unk&gt;/0.57982</text>
</g>
<!-- 13&#45;&gt;0 -->
<g id="edge45" class="edge">
<title>13&#45;&gt;0</title>
<path fill="none" stroke="black" d="M6902.47,-949.06C6826.92,-954.68 6700.02,-962.7 6590.67,-962.7 721.49,-962.7 721.49,-962.7 721.49,-962.7 651.48,-962.7 459.48,-979.12 407.99,-931.7 362.61,-889.9 346.36,-712.98 340.77,-614.88"/>
<polygon fill="black" stroke="black" points="344.26,-614.57 340.21,-604.77 337.27,-614.95 344.26,-614.57"/>
<text text-anchor="middle" x="4246.99" y="-966.5" font-family="Times-Roman" font-size="14.00">&lt;epsilon&gt;:&lt;epsilon&gt;/1.0473</text>
</g>
<!-- 7&#45;&gt;0 -->
<g id="edge30" class="edge">
<title>7&#45;&gt;0</title>
<path fill="none" stroke="black" d="M1538.3,-251.32C1397.01,-264.68 431.55,-356.58 407.99,-374.7 374.22,-400.66 356.69,-445.52 347.62,-483.19"/>
<polygon fill="black" stroke="black" points="344.17,-482.57 345.38,-493.09 351,-484.11 344.17,-482.57"/>
<text text-anchor="middle" x="931.99" y="-326.5" font-family="Times-Roman" font-size="14.00">&lt;epsilon&gt;:&lt;epsilon&gt;/&#45;0.19237</text>
</g>
<!-- 19 -->
<g id="node23" class="node">
<title>19</title>
<ellipse fill="none" stroke="black" cx="2228.49" cy="-66.7" rx="23" ry="23"/>
<text text-anchor="middle" x="2228.49" y="-63" font-family="Times-Roman" font-size="14.00">19</text>
</g>
<!-- 7&#45;&gt;19 -->
<g id="edge31" class="edge">
<title>7&#45;&gt;19</title>
<path fill="none" stroke="black" d="M1570.68,-238.31C1590.72,-221.65 1630.69,-190.84 1669.99,-174.7 1859.31,-96.95 2108.18,-74.28 2195.53,-68.48"/>
<polygon fill="black" stroke="black" points="2195.85,-71.97 2205.61,-67.84 2195.4,-64.98 2195.85,-71.97"/>
<text text-anchor="middle" x="1777.49" y="-178.5" font-family="Times-Roman" font-size="14.00">language:language/2.1972</text>
</g>
<!-- 27 -->
<g id="node24" class="node">
<title>27</title>
<ellipse fill="none" stroke="black" cx="3797.99" cy="-246.7" rx="23" ry="23"/>
<text text-anchor="middle" x="3797.99" y="-243" font-family="Times-Roman" font-size="14.00">27</text>
</g>
<!-- 7&#45;&gt;27 -->
<g id="edge32" class="edge">
<title>7&#45;&gt;27</title>
<path fill="none" stroke="black" d="M1574.38,-246.68C1633.18,-236.44 1834.41,-203.7 2001.99,-203.7 2001.99,-203.7 2001.99,-203.7 3365.99,-203.7 3516.2,-203.7 3694.4,-229.87 3765.46,-241.38"/>
<polygon fill="black" stroke="black" points="3765.11,-244.87 3775.54,-243.03 3766.24,-237.96 3765.11,-244.87"/>
<text text-anchor="middle" x="2688.49" y="-207.5" font-family="Times-Roman" font-size="14.00">sentence:sentence/2.1972</text>
</g>
<!-- 9 -->
<g id="node25" class="node">
<title>9</title>
<ellipse fill="none" stroke="black" cx="2002.99" cy="-434.7" rx="18" ry="18"/>
<text text-anchor="middle" x="2002.99" y="-431" font-family="Times-Roman" font-size="14.00">9</text>
</g>
<!-- 7&#45;&gt;9 -->
<g id="edge33" class="edge">
<title>7&#45;&gt;9</title>
<path fill="none" stroke="black" d="M1574.65,-252.06C1638.92,-261.08 1862.85,-293.9 1884.99,-316.7 1912.02,-344.53 1874.41,-373.52 1899.99,-402.7 1918.66,-424 1951.33,-431.27 1974.66,-433.68"/>
<polygon fill="black" stroke="black" points="1974.4,-437.17 1984.64,-434.47 1974.95,-430.19 1974.4,-437.17"/>
<text text-anchor="middle" x="1777.49" y="-320.5" font-family="Times-Roman" font-size="14.00">&lt;unk&gt;:&lt;unk&gt;/2.1972</text>
</g>
<!-- 10&#45;&gt;0 -->
<g id="edge39" class="edge">
<title>10&#45;&gt;0</title>
<path fill="none" stroke="black" d="M3342.17,-726.5C3202.65,-750.48 2420.91,-879.7 1778.49,-879.7 721.49,-879.7 721.49,-879.7 721.49,-879.7 651.62,-879.7 460.91,-901.32 407.99,-855.7 372.16,-824.8 352.78,-695.33 343.99,-614.71"/>
<polygon fill="black" stroke="black" points="347.46,-614.22 342.92,-604.65 340.5,-614.96 347.46,-614.22"/>
<text text-anchor="middle" x="1777.49" y="-883.5" font-family="Times-Roman" font-size="14.00">&lt;epsilon&gt;:&lt;epsilon&gt;/0.04879</text>
</g>
<!-- 12 -->
<g id="node26" class="node">
<title>12</title>
<ellipse fill="none" stroke="black" cx="3797.99" cy="-606.7" rx="23" ry="23"/>
<text text-anchor="middle" x="3797.99" y="-603" font-family="Times-Roman" font-size="14.00">12</text>
</g>
<!-- 10&#45;&gt;12 -->
<g id="edge40" class="edge">
<title>10&#45;&gt;12</title>
<path fill="none" stroke="black" d="M3387.34,-717.18C3438.13,-704.04 3570.12,-669.71 3679.99,-639.7 3709.25,-631.7 3742.54,-622.28 3766.1,-615.56"/>
<polygon fill="black" stroke="black" points="3767.23,-618.88 3775.88,-612.76 3765.31,-612.15 3767.23,-618.88"/>
<text text-anchor="middle" x="3581.49" y="-694.5" font-family="Times-Roman" font-size="14.00">&lt;unk&gt;:&lt;unk&gt;/1.0986</text>
</g>
<!-- 15&#45;&gt;0 -->
<g id="edge47" class="edge">
<title>15&#45;&gt;0</title>
<path fill="none" stroke="black" d="M700.11,-262.21C680.25,-267.15 649.79,-274.28 622.99,-278.7 575.58,-286.5 444.72,-270.72 407.99,-301.7 380.34,-325.02 359.61,-418.06 348.15,-483.04"/>
<polygon fill="black" stroke="black" points="344.64,-482.76 346.39,-493.21 351.54,-483.96 344.64,-482.76"/>
<text text-anchor="middle" x="515.49" y="-305.5" font-family="Times-Roman" font-size="14.00">&lt;epsilon&gt;:&lt;epsilon&gt;/0.3001</text>
</g>
<!-- 15&#45;&gt;17 -->
<g id="edge48" class="edge">
<title>15&#45;&gt;17</title>
<path fill="none" stroke="black" d="M744.87,-252.36C763.69,-247.49 790.57,-237.77 806.99,-219.7 821.17,-204.1 805.05,-187.24 821.99,-174.7 865.87,-142.21 1033.19,-155.65 1104.02,-163.04"/>
<polygon fill="black" stroke="black" points="1103.81,-166.54 1114.13,-164.13 1104.56,-159.58 1103.81,-166.54"/>
<text text-anchor="middle" x="931.99" y="-178.5" font-family="Times-Roman" font-size="14.00">a:a/1.0986</text>
</g>
<!-- 18&#45;&gt;0 -->
<g id="edge53" class="edge">
<title>18&#45;&gt;0</title>
<path fill="none" stroke="black" d="M5781.83,-731.59C5763.42,-733.93 5736.26,-737.08 5712.48,-738.7 5352.07,-763.11 5261.21,-759.7 4899.98,-759.7 4568.74,-759.7 4568.74,-759.7 4568.74,-759.7 3987.96,-759.7 3842.58,-769.49 3261.99,-754.7 3007.35,-748.21 2944.22,-727.7 2689.49,-727.7 721.49,-727.7 721.49,-727.7 721.49,-727.7 579.28,-727.7 524.33,-745.48 407.99,-663.7 388.75,-650.17 373.82,-629.52 362.79,-609.42"/>
<polygon fill="black" stroke="black" points="365.89,-607.8 358.15,-600.56 359.69,-611.05 365.89,-607.8"/>
<text text-anchor="middle" x="3364.99" y="-762.5" font-family="Times-Roman" font-size="14.00">&lt;epsilon&gt;:&lt;epsilon&gt;/1.0473</text>
</g>
<!-- 21 -->
<g id="node28" class="node">
<title>21</title>
<ellipse fill="none" stroke="black" cx="6088.23" cy="-728.7" rx="23" ry="23"/>
<text text-anchor="middle" x="6088.23" y="-725" font-family="Times-Roman" font-size="14.00">21</text>
</g>
<!-- 18&#45;&gt;21 -->
<g id="edge54" class="edge">
<title>18&#45;&gt;21</title>
<path fill="none" stroke="black" d="M5827.59,-728.7C5877.17,-728.7 5997.41,-728.7 6055.19,-728.7"/>
<polygon fill="black" stroke="black" points="6055.22,-732.2 6065.22,-728.7 6055.22,-725.2 6055.22,-732.2"/>
<text text-anchor="middle" x="5973.48" y="-732.5" font-family="Times-Roman" font-size="14.00">model:model/0.40547</text>
</g>
<!-- 23&#45;&gt;0 -->
<g id="edge62" class="edge">
<title>23&#45;&gt;0</title>
<path fill="none" stroke="black" d="M700.68,-427.83C647.7,-411.69 505.05,-376.66 407.99,-431.7 386.64,-443.8 371.1,-465.3 360.17,-486.59"/>
<polygon fill="black" stroke="black" points="356.98,-485.14 355.77,-495.67 363.28,-488.2 356.98,-485.14"/>
<text text-anchor="middle" x="515.49" y="-435.5" font-family="Times-Roman" font-size="14.00">&lt;epsilon&gt;:&lt;epsilon&gt;/0.04879</text>
</g>
<!-- 23&#45;&gt;25 -->
<g id="edge63" class="edge">
<title>23&#45;&gt;25</title>
<path fill="none" stroke="black" d="M745.48,-433.21C879.44,-424.18 1585.2,-376.59 1744.52,-365.85"/>
<polygon fill="black" stroke="black" points="1744.88,-369.34 1754.62,-365.17 1744.41,-362.35 1744.88,-369.34"/>
<text text-anchor="middle" x="1136.99" y="-415.5" font-family="Times-Roman" font-size="14.00">&lt;unk&gt;:&lt;unk&gt;/1.0986</text>
</g>
<!-- 20&#45;&gt;0 -->
<g id="edge57" class="edge">
<title>20&#45;&gt;0</title>
<path fill="none" stroke="black" d="M6364.49,-853.08C6354.88,-857.13 6343.06,-861.45 6331.97,-863.7 6062.02,-918.35 5987.87,-875.86 5712.48,-880.7 4765.82,-897.32 4529.29,-917.7 3582.49,-917.7 2687.49,-917.7 2687.49,-917.7 2687.49,-917.7 2282.08,-917.7 2183.9,-841.7 1778.49,-841.7 721.49,-841.7 721.49,-841.7 721.49,-841.7 651.57,-841.7 461.49,-859.73 407.99,-814.7 377.61,-789.12 357.16,-684.5 346.56,-614.34"/>
<polygon fill="black" stroke="black" points="350,-613.63 345.07,-604.25 343.07,-614.66 350,-613.63"/>
<text text-anchor="middle" x="3797.99" y="-920.5" font-family="Times-Roman" font-size="14.00">&lt;epsilon&gt;:&lt;epsilon&gt;/0.3001</text>
</g>
<!-- 22 -->
<g id="node29" class="node">
<title>22</title>
<ellipse fill="none" stroke="black" cx="6589.67" cy="-828.7" rx="63.88" ry="63.88"/>
<ellipse fill="none" stroke="black" cx="6589.67" cy="-828.7" rx="67.89" ry="67.89"/>
<text text-anchor="middle" x="6589.67" y="-825" font-family="Times-Roman" font-size="14.00">22/0.15861</text>
</g>
<!-- 20&#45;&gt;22 -->
<g id="edge58" class="edge">
<title>20&#45;&gt;22</title>
<path fill="none" stroke="black" d="M6408.5,-842.06C6433.2,-840.23 6474.64,-837.16 6511.55,-834.42"/>
<polygon fill="black" stroke="black" points="6512.11,-837.89 6521.82,-833.66 6511.59,-830.9 6512.11,-837.89"/>
<text text-anchor="middle" x="6472.97" y="-842.5" font-family="Times-Roman" font-size="14.00">.:./1.0986</text>
</g>
<!-- 26&#45;&gt;0 -->
<g id="edge68" class="edge">
<title>26&#45;&gt;0</title>
<path fill="none" stroke="black" d="M4224.14,-180.36C4159.32,-176.51 3962.45,-165.7 3798.99,-165.7 2227.49,-165.7 2227.49,-165.7 2227.49,-165.7 1979.11,-165.7 1917.63,-185.52 1669.99,-204.7 1575.71,-212 1552.08,-213.24 1457.99,-222.7 1450.69,-223.43 413.71,-340.09 407.99,-344.7 366.78,-377.88 349.74,-436.59 342.74,-482.53"/>
<polygon fill="black" stroke="black" points="339.23,-482.33 341.32,-492.72 346.17,-483.3 339.23,-482.33"/>
<text text-anchor="middle" x="2228.49" y="-171.5" font-family="Times-Roman" font-size="14.00">&lt;epsilon&gt;:&lt;epsilon&gt;/0.04879</text>
</g>
<!-- 28 -->
<g id="node31" class="node">
<title>28</title>
<ellipse fill="none" stroke="black" cx="4569.74" cy="-420.7" rx="23" ry="23"/>
<text text-anchor="middle" x="4569.74" y="-417" font-family="Times-Roman" font-size="14.00">28</text>
</g>
<!-- 26&#45;&gt;28 -->
<g id="edge69" class="edge">
<title>26&#45;&gt;28</title>
<path fill="none" stroke="black" d="M4269.47,-186.47C4321.79,-199.17 4457.05,-238.64 4531.99,-321.7 4548.77,-340.29 4558.11,-367.24 4563.17,-388.33"/>
<polygon fill="black" stroke="black" points="4559.76,-389.13 4565.32,-398.15 4566.6,-387.63 4559.76,-389.13"/>
<text text-anchor="middle" x="4451.99" y="-325.5" font-family="Times-Roman" font-size="14.00">&lt;unk&gt;:&lt;unk&gt;/1.0986</text>
</g>
<!-- 29&#45;&gt;0 -->
<g id="edge74" class="edge">
<title>29&#45;&gt;0</title>
<path fill="none" stroke="black" d="M5092.72,-616.35C5071.81,-613.23 5040.09,-606.2 5016.98,-590.7 5008.05,-584.7 5008.88,-579.95 5001.98,-571.7 4445.94,93.93 4701.76,-5.7 4452.99,-5.7 1135.99,-5.7 1135.99,-5.7 1135.99,-5.7 901.63,-5.7 853.5,-85.4 622.99,-127.7 575.6,-136.39 442.85,-122.43 407.99,-155.7 402.07,-161.35 366.7,-373.08 348.62,-483.36"/>
<polygon fill="black" stroke="black" points="345.15,-482.95 346.98,-493.38 352.05,-484.08 345.15,-482.95"/>
<text text-anchor="middle" x="2913.99" y="-9.5" font-family="Times-Roman" font-size="14.00">&lt;epsilon&gt;:&lt;epsilon&gt;/0.3001</text>
</g>
<!-- 31 -->
<g id="node32" class="node">
<title>31</title>
<ellipse fill="none" stroke="black" cx="5454.73" cy="-664.7" rx="23" ry="23"/>
<text text-anchor="middle" x="5454.73" y="-661" font-family="Times-Roman" font-size="14.00">31</text>
</g>
<!-- 29&#45;&gt;31 -->
<g id="edge75" class="edge">
<title>29&#45;&gt;31</title>
<path fill="none" stroke="black" d="M5138.09,-621.64C5195.77,-629.51 5353.61,-651.04 5421.73,-660.33"/>
<polygon fill="black" stroke="black" points="5421.48,-663.83 5431.86,-661.71 5422.43,-656.89 5421.48,-663.83"/>
<text text-anchor="middle" x="5322.98" y="-662.5" font-family="Times-Roman" font-size="14.00">language:language/1.0986</text>
</g>
<!-- 2&#45;&gt;0 -->
<g id="edge16" class="edge">
<title>2&#45;&gt;0</title>
<path fill="none" stroke="black" d="M704.41,-499.99C656.5,-493.03 517.29,-477.11 407.99,-507.7 403.03,-509.08 398.06,-510.91 393.19,-513.03"/>
<polygon fill="black" stroke="black" points="391.49,-509.96 383.95,-517.4 394.48,-516.28 391.49,-509.96"/>
<text text-anchor="middle" x="515.49" y="-511.5" font-family="Times-Roman" font-size="14.00">&lt;epsilon&gt;:&lt;epsilon&gt;/0.04879</text>
</g>
<!-- 2&#45;&gt;5 -->
<g id="edge17" class="edge">
<title>2&#45;&gt;5</title>
<path fill="none" stroke="black" d="M740.53,-501.31C825.59,-494.37 1204.47,-463.46 1309.45,-454.9"/>
<polygon fill="black" stroke="black" points="1309.86,-458.38 1319.54,-454.08 1309.29,-451.4 1309.86,-458.38"/>
<text text-anchor="middle" x="931.99" y="-497.5" font-family="Times-Roman" font-size="14.00">&lt;unk&gt;:&lt;unk&gt;/1.0986</text>
</g>
<!-- 4&#45;&gt;0 -->
<g id="edge20" class="edge">
<title>4&#45;&gt;0</title>
<path fill="none" stroke="black" d="M2442.83,-519.2C2420.66,-533.1 2376.84,-558.71 2335.99,-571.7 2193.9,-616.85 2153.08,-619.7 2003.99,-619.7 721.49,-619.7 721.49,-619.7 721.49,-619.7 581.39,-619.7 541.79,-628.25 407.99,-586.7 403.44,-585.28 398.85,-583.56 394.31,-581.64"/>
<polygon fill="black" stroke="black" points="395.65,-578.41 385.1,-577.46 392.75,-584.78 395.65,-578.41"/>
<text text-anchor="middle" x="1337.49" y="-623.5" font-family="Times-Roman" font-size="14.00">&lt;epsilon&gt;:&lt;epsilon&gt;/&#45;0.3285</text>
</g>
<!-- 14 -->
<g id="node18" class="node">
<title>14</title>
<ellipse fill="none" stroke="black" cx="4246.99" cy="-586.7" rx="63.88" ry="63.88"/>
<ellipse fill="none" stroke="black" cx="4246.99" cy="-586.7" rx="67.89" ry="67.89"/>
<text text-anchor="middle" x="4246.99" y="-583" font-family="Times-Roman" font-size="14.00">14/0.57982</text>
</g>
<!-- 4&#45;&gt;14 -->
<g id="edge21" class="edge">
<title>4&#45;&gt;14</title>
<path fill="none" stroke="black" d="M2476.36,-511.85C2499.8,-514.76 2543.55,-519.91 2580.99,-522.7 2728.27,-533.67 2765.3,-536.7 2912.99,-536.7 2912.99,-536.7 2912.99,-536.7 3798.99,-536.7 3930.2,-536.7 4081.73,-558.24 4170.39,-573.04"/>
<polygon fill="black" stroke="black" points="4169.91,-576.51 4180.36,-574.72 4171.08,-569.61 4169.91,-576.51"/>
<text text-anchor="middle" x="3364.99" y="-540.5" font-family="Times-Roman" font-size="14.00">.:./2.8904</text>
</g>
<!-- 8 -->
<g id="node19" class="node">
<title>8</title>
<ellipse fill="none" stroke="black" cx="3364.99" cy="-302.7" rx="18" ry="18"/>
<text text-anchor="middle" x="3364.99" y="-299" font-family="Times-Roman" font-size="14.00">8</text>
</g>
<!-- 4&#45;&gt;8 -->
<g id="edge22" class="edge">
<title>4&#45;&gt;8</title>
<path fill="none" stroke="black" d="M2470.04,-495.61C2489.14,-471.29 2532.03,-421.93 2580.99,-399.7 2674.7,-357.14 2708.64,-383.52 2810.99,-372.7 3004.55,-352.24 3055.11,-364.31 3246.99,-331.7 3278.48,-326.34 3314.01,-317.07 3337.57,-310.45"/>
<polygon fill="black" stroke="black" points="3338.84,-313.72 3347.49,-307.61 3336.92,-306.99 3338.84,-313.72"/>
<text text-anchor="middle" x="2913.99" y="-376.5" font-family="Times-Roman" font-size="14.00">a:a/1.5041</text>
</g>
<!-- 11 -->
<g id="node20" class="node">
<title>11</title>
<ellipse fill="none" stroke="black" cx="2913.99" cy="-625.7" rx="23" ry="23"/>
<text text-anchor="middle" x="2913.99" y="-622" font-family="Times-Roman" font-size="14.00">11</text>
</g>
<!-- 4&#45;&gt;11 -->
<g id="edge23" class="edge">
<title>4&#45;&gt;11</title>
<path fill="none" stroke="black" d="M2473.67,-519.48C2495.58,-534.04 2539.48,-561.05 2580.99,-573.7 2672.92,-601.7 2701.35,-579.99 2795.99,-596.7 2825.61,-601.93 2858.85,-610.43 2882.31,-616.87"/>
<polygon fill="black" stroke="black" points="2881.47,-620.27 2892.04,-619.58 2883.35,-613.53 2881.47,-620.27"/>
<text text-anchor="middle" x="2688.49" y="-600.5" font-family="Times-Roman" font-size="14.00">across:across/2.8904</text>
</g>
<!-- 30 -->
<g id="node21" class="node">
<title>30</title>
<ellipse fill="none" stroke="black" cx="4758.23" cy="-551.7" rx="23" ry="23"/>
<text text-anchor="middle" x="4758.23" y="-548" font-family="Times-Roman" font-size="14.00">30</text>
</g>
<!-- 4&#45;&gt;30 -->
<g id="edge24" class="edge">
<title>4&#45;&gt;30</title>
<path fill="none" stroke="black" d="M2476.61,-509.19C2579.93,-506.17 3130.86,-490.7 3580.49,-490.7 3580.49,-490.7 3580.49,-490.7 4570.74,-490.7 4629.12,-490.7 4692.92,-518.04 4728.72,-536.11"/>
<polygon fill="black" stroke="black" points="4727.55,-539.45 4738.04,-540.93 4730.77,-533.23 4727.55,-539.45"/>
<text text-anchor="middle" x="3797.99" y="-494.5" font-family="Times-Roman" font-size="14.00">the:the/2.8904</text>
</g>
<!-- 6 -->
<g id="node22" class="node">
<title>6</title>
<ellipse fill="none" stroke="black" cx="2913.99" cy="-414.7" rx="18" ry="18"/>
<text text-anchor="middle" x="2913.99" y="-411" font-family="Times-Roman" font-size="14.00">6</text>
</g>
<!-- 4&#45;&gt;6 -->
<g id="edge25" class="edge">
<title>4&#45;&gt;6</title>
<path fill="none" stroke="black" d="M2474.65,-501.09C2497.1,-488.79 2540.86,-466.47 2580.99,-455.7 2673.8,-430.77 2700.7,-445.12 2795.99,-432.7 2826.92,-428.67 2862.29,-423.09 2885.97,-419.21"/>
<polygon fill="black" stroke="black" points="2886.68,-422.65 2895.97,-417.57 2885.54,-415.74 2886.68,-422.65"/>
<text text-anchor="middle" x="2688.49" y="-459.5" font-family="Times-Roman" font-size="14.00">&lt;unk&gt;:&lt;unk&gt;/2.8904</text>
</g>
<!-- 5&#45;&gt;4 -->
<g id="edge26" class="edge">
<title>5&#45;&gt;4</title>
<path fill="none" stroke="black" d="M1355.44,-455.16C1423.56,-464.93 1684.15,-501.03 1899.99,-513.7 1998.05,-519.45 2022.77,-515.25 2120.99,-515.7 2216.55,-516.13 2240.46,-518.05 2335.99,-515.7 2368.36,-514.9 2405.54,-512.9 2430.15,-511.43"/>
<polygon fill="black" stroke="black" points="2430.43,-514.92 2440.2,-510.82 2430,-507.94 2430.43,-514.92"/>
<text text-anchor="middle" x="1777.49" y="-515.5" font-family="Times-Roman" font-size="14.00">&lt;epsilon&gt;:&lt;epsilon&gt;/0.76382</text>
</g>
<!-- 5&#45;&gt;6 -->
<g id="edge27" class="edge">
<title>5&#45;&gt;6</title>
<path fill="none" stroke="black" d="M1355.44,-450.22C1423.55,-440.4 1684.12,-404.2 1899.99,-392.7 2082.64,-382.97 2472.02,-377.36 2795.99,-399.7 2827,-401.83 2862.36,-406.71 2886.01,-410.32"/>
<polygon fill="black" stroke="black" points="2885.58,-413.8 2896,-411.88 2886.66,-406.88 2885.58,-413.8"/>
<text text-anchor="middle" x="2002.99" y="-396.5" font-family="Times-Roman" font-size="14.00">&lt;unk&gt;:&lt;unk&gt;/0.57982</text>
</g>
<!-- 14&#45;&gt;13 -->
<g id="edge46" class="edge">
<title>14&#45;&gt;13</title>
<path fill="none" stroke="black" d="M4313.26,-600.9C4610.31,-665.05 5836.75,-924.7 6227.97,-924.7 6227.97,-924.7 6227.97,-924.7 6590.67,-924.7 6695.32,-924.7 6816.05,-932.04 6892.45,-937.59"/>
<polygon fill="black" stroke="black" points="6892.24,-941.08 6902.47,-938.33 6892.75,-934.1 6892.24,-941.08"/>
<text text-anchor="middle" x="5602.48" y="-871.5" font-family="Times-Roman" font-size="14.00">&lt;epsilon&gt;:&lt;epsilon&gt;/&#45;0.27763</text>
</g>
<!-- 8&#45;&gt;7 -->
<g id="edge34" class="edge">
<title>8&#45;&gt;7</title>
<path fill="none" stroke="black" d="M3346.94,-302.09C3324.16,-301.28 3282.54,-299.82 3246.99,-298.7 2571.76,-277.36 1744.61,-254.77 1584.89,-250.44"/>
<polygon fill="black" stroke="black" points="1584.64,-246.93 1574.55,-250.16 1584.45,-253.93 1584.64,-246.93"/>
<text text-anchor="middle" x="2458.49" y="-282.5" font-family="Times-Roman" font-size="14.00">&lt;epsilon&gt;:&lt;epsilon&gt;/0.97513</text>
</g>
<!-- 8&#45;&gt;27 -->
<g id="edge35" class="edge">
<title>8&#45;&gt;27</title>
<path fill="none" stroke="black" d="M3382.89,-300.5C3447.51,-292.1 3679.69,-261.94 3765.14,-250.84"/>
<polygon fill="black" stroke="black" points="3765.8,-254.28 3775.27,-249.52 3764.9,-247.34 3765.8,-254.28"/>
<text text-anchor="middle" x="3581.49" y="-290.5" font-family="Times-Roman" font-size="14.00">sentence:sentence/0.65393</text>
</g>
<!-- 8&#45;&gt;9 -->
<g id="edge36" class="edge">
<title>8&#45;&gt;9</title>
<path fill="none" stroke="black" d="M3346.87,-303.42C3263.02,-307.05 2887.32,-324.4 2580.99,-355.7 2368.25,-377.43 2113.19,-417.18 2030.94,-430.34"/>
<polygon fill="black" stroke="black" points="2030.25,-426.9 2020.93,-431.94 2031.36,-433.81 2030.25,-426.9"/>
<text text-anchor="middle" x="2688.49" y="-359.5" font-family="Times-Roman" font-size="14.00">&lt;unk&gt;:&lt;unk&gt;/1.6784</text>
</g>
<!-- 11&#45;&gt;10 -->
<g id="edge41" class="edge">
<title>11&#45;&gt;10</title>
<path fill="none" stroke="black" d="M2936.34,-630.31C3008.95,-646 3246.56,-697.33 3332.56,-715.91"/>
<polygon fill="black" stroke="black" points="3331.99,-719.36 3342.51,-718.05 3333.47,-712.52 3331.99,-719.36"/>
<text text-anchor="middle" x="3139.49" y="-699.5" font-family="Times-Roman" font-size="14.00">&lt;epsilon&gt;:&lt;epsilon&gt;/0.41552</text>
</g>
<!-- 11&#45;&gt;12 -->
<g id="edge42" class="edge">
<title>11&#45;&gt;12</title>
<path fill="none" stroke="black" d="M2936.79,-625.23C3055.46,-622.67 3623.43,-610.44 3764.98,-607.39"/>
<polygon fill="black" stroke="black" points="3765.24,-610.88 3775.16,-607.17 3765.09,-603.88 3765.24,-610.88"/>
<text text-anchor="middle" x="3364.99" y="-621.5" font-family="Times-Roman" font-size="14.00">&lt;unk&gt;:&lt;unk&gt;/0.57982</text>
</g>
<!-- 30&#45;&gt;29 -->
<g id="edge76" class="edge">
<title>30&#45;&gt;29</title>
<path fill="none" stroke="black" d="M4776.69,-565.36C4782.53,-569.3 4789.27,-573.2 4795.98,-575.7 4895.67,-612.81 5023.51,-618.49 5082.29,-618.98"/>
<polygon fill="black" stroke="black" points="5082.43,-622.48 5092.44,-619.01 5082.45,-615.48 5082.43,-622.48"/>
<text text-anchor="middle" x="4898.98" y="-618.5" font-family="Times-Roman" font-size="14.00">&lt;epsilon&gt;:&lt;epsilon&gt;/1.1087</text>
</g>
<!-- 30&#45;&gt;31 -->
<g id="edge77" class="edge">
<title>30&#45;&gt;31</title>
<path fill="none" stroke="black" d="M4781.2,-550.82C4847.22,-548.57 5049.46,-544.57 5213.98,-571.7 5306.69,-586.98 5335.2,-584.44 5416.98,-630.7 5421.99,-633.53 5426.87,-637.18 5431.35,-641.02"/>
<polygon fill="black" stroke="black" points="5429.21,-643.81 5438.93,-648.03 5433.96,-638.67 5429.21,-643.81"/>
<text text-anchor="middle" x="5115.48" y="-575.5" font-family="Times-Roman" font-size="14.00">language:language/0.24846</text>
</g>
<!-- 6&#45;&gt;4 -->
<g id="edge28" class="edge">
<title>6&#45;&gt;4</title>
<path fill="none" stroke="black" d="M2895.93,-413.17C2836.63,-408.09 2639.93,-393.22 2580.99,-413.7 2538.51,-428.45 2499.67,-464.91 2477.85,-488.41"/>
<polygon fill="black" stroke="black" points="2474.98,-486.37 2470.86,-496.13 2480.17,-491.07 2474.98,-486.37"/>
<text text-anchor="middle" x="2688.49" y="-417.5" font-family="Times-Roman" font-size="14.00">&lt;epsilon&gt;:&lt;epsilon&gt;/0.56967</text>
</g>
<!-- 6&#45;&gt;8 -->
<g id="edge29" class="edge">
<title>6&#45;&gt;8</title>
<path fill="none" stroke="black" d="M2932.18,-415.48C2982.33,-417.21 3132.19,-418.37 3246.99,-377.7 3283.69,-364.69 3320.62,-338.28 3342.9,-320.53"/>
<polygon fill="black" stroke="black" points="3345.14,-323.22 3350.69,-314.2 3340.72,-317.79 3345.14,-323.22"/>
<text text-anchor="middle" x="3139.49" y="-418.5" font-family="Times-Roman" font-size="14.00">a:a/0.57982</text>
</g>
<!-- 19&#45;&gt;18 -->
<g id="edge55" class="edge">
<title>19&#45;&gt;18</title>
<path fill="none" stroke="black" d="M2251.4,-68.58C2317.3,-74.07 2519.51,-89.7 2687.49,-89.7 2687.49,-89.7 2687.49,-89.7 5455.73,-89.7 5492.88,-89.7 5700.36,-675.3 5727.48,-700.7 5739.65,-712.1 5756.86,-718.95 5771.83,-723.01"/>
<polygon fill="black" stroke="black" points="5771.2,-726.46 5781.74,-725.4 5772.84,-719.66 5771.2,-726.46"/>
<text text-anchor="middle" x="4246.99" y="-93.5" font-family="Times-Roman" font-size="14.00">&lt;epsilon&gt;:&lt;epsilon&gt;/&#45;0.27763</text>
</g>
<!-- 19&#45;&gt;21 -->
<g id="edge56" class="edge">
<title>19&#45;&gt;21</title>
<path fill="none" stroke="black" d="M2251.38,-66.3C2420.82,-63.24 3540.74,-43.7 4450.99,-43.7 4450.99,-43.7 4450.99,-43.7 5805.48,-43.7 5948.36,-43.7 6055.49,-559.9 6081.27,-696.08"/>
<polygon fill="black" stroke="black" points="6077.9,-697.11 6083.19,-706.29 6084.78,-695.82 6077.9,-697.11"/>
<text text-anchor="middle" x="4451.99" y="-48.5" font-family="Times-Roman" font-size="14.00">model:model/0.57982</text>
</g>
<!-- 27&#45;&gt;26 -->
<g id="edge70" class="edge">
<title>27&#45;&gt;26</title>
<path fill="none" stroke="black" d="M3820.55,-243.56C3893.12,-233.01 4128.78,-198.74 4214.47,-186.28"/>
<polygon fill="black" stroke="black" points="4214.99,-189.74 4224.39,-184.84 4213.99,-182.81 4214.99,-189.74"/>
<text text-anchor="middle" x="4018.99" y="-233.5" font-family="Times-Roman" font-size="14.00">&lt;epsilon&gt;:&lt;epsilon&gt;/1.1087</text>
</g>
<!-- 27&#45;&gt;28 -->
<g id="edge71" class="edge">
<title>27&#45;&gt;28</title>
<path fill="none" stroke="black" d="M3820.38,-251.53C3927.96,-275.85 4409.71,-384.75 4537.53,-413.64"/>
<polygon fill="black" stroke="black" points="4536.93,-417.09 4547.45,-415.88 4538.47,-410.27 4536.93,-417.09"/>
<text text-anchor="middle" x="4246.99" y="-374.5" font-family="Times-Roman" font-size="14.00">&lt;unk&gt;:&lt;unk&gt;/0.24846</text>
</g>
<!-- 9&#45;&gt;4 -->
<g id="edge37" class="edge">
<title>9&#45;&gt;4</title>
<path fill="none" stroke="black" d="M2021.21,-434.11C2070.84,-432.81 2218.16,-431.76 2335.99,-459.7 2371.1,-468.02 2409.22,-485.15 2433.22,-497.03"/>
<polygon fill="black" stroke="black" points="2431.78,-500.22 2442.29,-501.6 2434.93,-493.97 2431.78,-500.22"/>
<text text-anchor="middle" x="2228.49" y="-463.5" font-family="Times-Roman" font-size="14.00">&lt;epsilon&gt;:&lt;epsilon&gt;/0.76382</text>
</g>
<!-- 9&#45;&gt;11 -->
<g id="edge38" class="edge">
<title>9&#45;&gt;11</title>
<path fill="none" stroke="black" d="M2021.33,-434.92C2042.88,-435.98 2079.98,-440.42 2105.99,-457.7 2115.55,-464.04 2111.63,-472.07 2120.99,-478.7 2294.69,-601.66 2370.95,-577.41 2580.99,-611.7 2689.8,-629.46 2821.17,-628.5 2880.78,-626.88"/>
<polygon fill="black" stroke="black" points="2881.16,-630.37 2891.05,-626.57 2880.95,-623.37 2881.16,-630.37"/>
<text text-anchor="middle" x="2458.49" y="-611.5" font-family="Times-Roman" font-size="14.00">across:across/0.57982</text>
</g>
<!-- 12&#45;&gt;4 -->
<g id="edge43" class="edge">
<title>12&#45;&gt;4</title>
<path fill="none" stroke="black" d="M3774.79,-605.99C3619.84,-601.01 2702.78,-570.75 2580.99,-548.7 2546.85,-542.51 2509,-529.3 2484.77,-519.97"/>
<polygon fill="black" stroke="black" points="2485.85,-516.64 2475.26,-516.24 2483.29,-523.15 2485.85,-516.64"/>
<text text-anchor="middle" x="3139.49" y="-590.5" font-family="Times-Roman" font-size="14.00">&lt;epsilon&gt;:&lt;epsilon&gt;/0.76382</text>
</g>
<!-- 12&#45;&gt;14 -->
<g id="edge44" class="edge">
<title>12&#45;&gt;14</title>
<path fill="none" stroke="black" d="M3820.85,-605.72C3883.28,-602.93 4064.56,-594.81 4169.14,-590.13"/>
<polygon fill="black" stroke="black" points="4169.49,-593.62 4179.33,-589.68 4169.18,-586.63 4169.49,-593.62"/>
<text text-anchor="middle" x="4018.99" y="-604.5" font-family="Times-Roman" font-size="14.00">.:./0.57982</text>
</g>
<!-- 17&#45;&gt;7 -->
<g id="edge51" class="edge">
<title>17&#45;&gt;7</title>
<path fill="none" stroke="black" d="M1159.56,-170.98C1229.73,-184.93 1451.44,-229.01 1528.66,-244.36"/>
<polygon fill="black" stroke="black" points="1528.07,-247.81 1538.56,-246.33 1529.44,-240.95 1528.07,-247.81"/>
<text text-anchor="middle" x="1337.49" y="-229.5" font-family="Times-Roman" font-size="14.00">&lt;epsilon&gt;:&lt;epsilon&gt;/0.7032</text>
</g>
<!-- 17&#45;&gt;19 -->
<g id="edge52" class="edge">
<title>17&#45;&gt;19</title>
<path fill="none" stroke="black" d="M1159.74,-163.23C1250.17,-148.98 1605.54,-94.71 1899.99,-73.7 2008.13,-65.98 2136.82,-65.87 2195.49,-66.32"/>
<polygon fill="black" stroke="black" points="2195.58,-69.82 2205.61,-66.41 2195.64,-62.82 2195.58,-69.82"/>
<text text-anchor="middle" x="1556.49" y="-124.5" font-family="Times-Roman" font-size="14.00">language:language/0.57982</text>
</g>
<!-- 21&#45;&gt;20 -->
<g id="edge59" class="edge">
<title>21&#45;&gt;20</title>
<path fill="none" stroke="black" d="M6100.08,-748.34C6106.41,-758.01 6115.26,-769 6125.97,-775.7 6205.35,-825.33 6243.09,-790.28 6331.97,-819.7 6339.87,-822.31 6348.16,-825.75 6355.76,-829.21"/>
<polygon fill="black" stroke="black" points="6354.4,-832.43 6364.94,-833.53 6357.39,-826.1 6354.4,-832.43"/>
<text text-anchor="middle" x="6228.97" y="-823.5" font-family="Times-Roman" font-size="14.00">&lt;epsilon&gt;:&lt;epsilon&gt;/1.5141</text>
</g>
<!-- 21&#45;&gt;22 -->
<g id="edge60" class="edge">
<title>21&#45;&gt;22</title>
<path fill="none" stroke="black" d="M6110.68,-732.76C6153.02,-740.79 6250.32,-759.36 6331.97,-775.7 6393.05,-787.91 6462.2,-802.22 6513.32,-812.88"/>
<polygon fill="black" stroke="black" points="6512.8,-816.35 6523.3,-814.97 6514.23,-809.5 6512.8,-816.35"/>
<text text-anchor="middle" x="6385.47" y="-797.5" font-family="Times-Roman" font-size="14.00">.:./0.15861</text>
</g>
<!-- 22&#45;&gt;13 -->
<g id="edge61" class="edge">
<title>22&#45;&gt;13</title>
<path fill="none" stroke="black" d="M6656.94,-837.65C6718.24,-847.32 6811.13,-865.54 6887.36,-895.7 6892.75,-897.83 6898.21,-900.28 6903.6,-902.93"/>
<polygon fill="black" stroke="black" points="6902.12,-906.1 6912.62,-907.55 6905.31,-899.87 6902.12,-906.1"/>
<text text-anchor="middle" x="6779.86" y="-899.5" font-family="Times-Roman" font-size="14.00">&lt;epsilon&gt;:&lt;epsilon&gt;/0.82098</text>
</g>
<!-- 25&#45;&gt;4 -->
<g id="edge66" class="edge">
<title>25&#45;&gt;4</title>
<path fill="none" stroke="black" d="M1792.99,-380.43C1813.98,-403.35 1855.24,-443.7 1899.99,-461.7 1998.05,-501.13 2332.18,-508.21 2430.23,-509.44"/>
<polygon fill="black" stroke="black" points="2430.2,-512.94 2440.24,-509.56 2430.28,-505.94 2430.2,-512.94"/>
<text text-anchor="middle" x="2002.99" y="-498.5" font-family="Times-Roman" font-size="14.00">&lt;epsilon&gt;:&lt;epsilon&gt;/1.2628</text>
</g>
<!-- 25&#45;&gt;8 -->
<g id="edge67" class="edge">
<title>25&#45;&gt;8</title>
<path fill="none" stroke="black" d="M1800.34,-362.33C1922.43,-354.78 2532.72,-317.94 3031.99,-304.7 3144.89,-301.7 3279.46,-302.12 3336.38,-302.48"/>
<polygon fill="black" stroke="black" points="3336.68,-305.98 3346.71,-302.55 3336.73,-298.98 3336.68,-305.98"/>
<text text-anchor="middle" x="2458.49" y="-335.5" font-family="Times-Roman" font-size="14.00">a:a/0.24846</text>
</g>
<!-- 28&#45;&gt;4 -->
<g id="edge72" class="edge">
<title>28&#45;&gt;4</title>
<path fill="none" stroke="black" d="M4546.9,-421.29C4398.53,-425.36 3523.18,-450.06 2810.99,-484.7 2708.7,-489.67 2683.11,-490.97 2580.99,-498.7 2548.61,-501.15 2511.44,-504.61 2486.83,-506.99"/>
<polygon fill="black" stroke="black" points="2486.39,-503.51 2476.78,-507.97 2487.07,-510.48 2486.39,-503.51"/>
<text text-anchor="middle" x="3581.49" y="-459.5" font-family="Times-Roman" font-size="14.00">&lt;epsilon&gt;:&lt;epsilon&gt;/1.457</text>
</g>
<!-- 28&#45;&gt;30 -->
<g id="edge73" class="edge">
<title>28&#45;&gt;30</title>
<path fill="none" stroke="black" d="M4592.63,-420.87C4624.57,-422.28 4684.08,-429.43 4720.49,-461.7 4737.19,-476.5 4746.44,-500.02 4751.48,-519.31"/>
<polygon fill="black" stroke="black" points="4748.12,-520.29 4753.81,-529.22 4754.93,-518.68 4748.12,-520.29"/>
<text text-anchor="middle" x="4663.99" y="-465.5" font-family="Times-Roman" font-size="14.00">the:the/0.24846</text>
</g>
<!-- 31&#45;&gt;18 -->
<g id="edge78" class="edge">
<title>31&#45;&gt;18</title>
<path fill="none" stroke="black" d="M5475.16,-674.93C5480.64,-677.47 5486.69,-679.96 5492.48,-681.7 5591.48,-711.42 5714.12,-722.88 5771.31,-726.84"/>
<polygon fill="black" stroke="black" points="5771.31,-730.35 5781.52,-727.51 5771.78,-723.36 5771.31,-730.35"/>
<text text-anchor="middle" x="5602.48" y="-724.5" font-family="Times-Roman" font-size="14.00">&lt;epsilon&gt;:&lt;epsilon&gt;/0.41552</text>
</g>
<!-- 31&#45;&gt;21 -->
<g id="edge79" class="edge">
<title>31&#45;&gt;21</title>
<path fill="none" stroke="black" d="M5477.56,-664.15C5540.54,-662.89 5727.86,-661.26 5881.48,-681.7 5944.46,-690.07 6016.52,-708.67 6056.46,-719.79"/>
<polygon fill="black" stroke="black" points="6055.56,-723.17 6066.14,-722.52 6057.46,-716.44 6055.56,-723.17"/>
<text text-anchor="middle" x="5804.48" y="-685.5" font-family="Times-Roman" font-size="14.00">model:model/0.24846</text>
</g>
</g>
</svg>
