<?xml version="1.0" encoding="UTF-8" standalone="no"?>
<!DOCTYPE svg PUBLIC "-//W3C//DTD SVG 1.1//EN"
 "http://www.w3.org/Graphics/SVG/1.1/DTD/svg11.dtd">
<!-- Generated by graphviz version 2.44.0 (0)
 -->
<!-- Title: FST Pages: 1 -->
<svg width="612pt" height="137pt"
 viewBox="0.00 0.00 612.00 136.51" xmlns="http://www.w3.org/2000/svg" xmlns:xlink="http://www.w3.org/1999/xlink">
<g id="graph0" class="graph" transform="scale(0.68 0.68) rotate(0) translate(4 196.75)">
<title>FST</title>
<polygon fill="white" stroke="transparent" points="-4,4 -4,-196.75 895.98,-196.75 895.98,4 -4,4"/>
<!-- 0 -->
<g id="node1" class="node">
<title>0</title>
<ellipse fill="none" stroke="black" stroke-width="2" cx="18" cy="-115.75" rx="18" ry="18"/>
<text text-anchor="middle" x="18" y="-112.05" font-family="Times-Roman" font-size="14.00">0</text>
</g>
<!-- 1 -->
<g id="node2" class="node">
<title>1</title>
<ellipse fill="none" stroke="black" cx="295.75" cy="-174.75" rx="18" ry="18"/>
<text text-anchor="middle" x="295.75" y="-171.05" font-family="Times-Roman" font-size="14.00">1</text>
</g>
<!-- 0&#45;&gt;1 -->
<g id="edge1" class="edge">
<title>0&#45;&gt;1</title>
<path fill="none" stroke="black" d="M33.11,-125.58C38.5,-128.94 44.83,-132.43 51,-134.75 69.19,-141.59 74.84,-139.44 94,-142.75 156.15,-153.48 229.35,-164.82 267.89,-170.69"/>
<polygon fill="black" stroke="black" points="267.39,-174.16 277.8,-172.2 268.44,-167.24 267.39,-174.16"/>
<text text-anchor="middle" x="157.5" y="-158.55" font-family="Times-Roman" font-size="14.00">A:A</text>
</g>
<!-- 14 -->
<g id="node3" class="node">
<title>14</title>
<ellipse fill="none" stroke="black" cx="568.24" cy="-85.75" rx="23" ry="23"/>
<text text-anchor="middle" x="568.24" y="-82.05" font-family="Times-Roman" font-size="14.00">14</text>
</g>
<!-- 0&#45;&gt;14 -->
<g id="edge2" class="edge">
<title>0&#45;&gt;14</title>
<path fill="none" stroke="black" d="M30.7,-102.76C46.95,-86.22 78.09,-59.75 111,-59.75 111,-59.75 111,-59.75 472.5,-59.75 494.8,-59.75 519.05,-66.53 537.43,-73.17"/>
<polygon fill="black" stroke="black" points="536.39,-76.52 546.98,-76.8 538.88,-69.98 536.39,-76.52"/>
<text text-anchor="middle" x="295.75" y="-63.55" font-family="Times-Roman" font-size="14.00">N:N</text>
</g>
<!-- 2 -->
<g id="node4" class="node">
<title>2</title>
<ellipse fill="none" stroke="black" cx="112" cy="-115.75" rx="18" ry="18"/>
<text text-anchor="middle" x="112" y="-112.05" font-family="Times-Roman" font-size="14.00">2</text>
</g>
<!-- 0&#45;&gt;2 -->
<g id="edge3" class="edge">
<title>0&#45;&gt;2</title>
<path fill="none" stroke="black" d="M36.3,-115.75C49.54,-115.75 68.05,-115.75 83.34,-115.75"/>
<polygon fill="black" stroke="black" points="83.77,-119.25 93.77,-115.75 83.77,-112.25 83.77,-119.25"/>
<text text-anchor="middle" x="65" y="-119.55" font-family="Times-Roman" font-size="14.00">Q:Q</text>
</g>
<!-- 3 -->
<g id="node5" class="node">
<title>3</title>
<ellipse fill="none" stroke="black" cx="389.5" cy="-173.75" rx="18" ry="18"/>
<text text-anchor="middle" x="389.5" y="-170.05" font-family="Times-Roman" font-size="14.00">3</text>
</g>
<!-- 1&#45;&gt;3 -->
<g id="edge4" class="edge">
<title>1&#45;&gt;3</title>
<path fill="none" stroke="black" d="M314.01,-174.56C327.2,-174.42 345.67,-174.21 360.91,-174.05"/>
<polygon fill="black" stroke="black" points="361.36,-177.54 371.32,-173.94 361.28,-170.54 361.36,-177.54"/>
<text text-anchor="middle" x="345" y="-177.55" font-family="Times-Roman" font-size="14.00">d:d</text>
</g>
<!-- 4 -->
<g id="node6" class="node">
<title>4</title>
<ellipse fill="none" stroke="black" cx="389.5" cy="-105.75" rx="18" ry="18"/>
<text text-anchor="middle" x="389.5" y="-102.05" font-family="Times-Roman" font-size="14.00">4</text>
</g>
<!-- 1&#45;&gt;4 -->
<g id="edge5" class="edge">
<title>1&#45;&gt;4</title>
<path fill="none" stroke="black" d="M310.68,-164.27C325.45,-153.16 348.99,-135.46 366.32,-122.43"/>
<polygon fill="black" stroke="black" points="368.84,-124.91 374.73,-116.1 364.64,-119.31 368.84,-124.91"/>
<text text-anchor="middle" x="345" y="-149.55" font-family="Times-Roman" font-size="14.00">r:r</text>
</g>
<!-- 5 -->
<g id="node9" class="node">
<title>5</title>
<ellipse fill="none" stroke="black" cx="665.99" cy="-85.75" rx="18" ry="18"/>
<text text-anchor="middle" x="665.99" y="-82.05" font-family="Times-Roman" font-size="14.00">5</text>
</g>
<!-- 14&#45;&gt;5 -->
<g id="edge18" class="edge">
<title>14&#45;&gt;5</title>
<path fill="none" stroke="black" d="M591.45,-85.75C605.32,-85.75 623.27,-85.75 637.97,-85.75"/>
<polygon fill="black" stroke="black" points="637.98,-89.25 647.98,-85.75 637.98,-82.25 637.98,-89.25"/>
<text text-anchor="middle" x="619.49" y="-89.55" font-family="Times-Roman" font-size="14.00">o:m</text>
</g>
<!-- 6 -->
<g id="node11" class="node">
<title>6</title>
<ellipse fill="none" stroke="black" cx="665.99" cy="-30.75" rx="18" ry="18"/>
<text text-anchor="middle" x="665.99" y="-27.05" font-family="Times-Roman" font-size="14.00">6</text>
</g>
<!-- 14&#45;&gt;6 -->
<g id="edge19" class="edge">
<title>14&#45;&gt;6</title>
<path fill="none" stroke="black" d="M588.62,-74.62C603.79,-65.91 624.95,-53.75 641.15,-44.44"/>
<polygon fill="black" stroke="black" points="643.11,-47.35 650.04,-39.34 639.62,-41.28 643.11,-47.35"/>
<text text-anchor="middle" x="619.49" y="-67.55" font-family="Times-Roman" font-size="14.00">o:o</text>
</g>
<!-- 7 -->
<g id="node7" class="node">
<title>7</title>
<ellipse fill="none" stroke="black" cx="203" cy="-115.75" rx="18" ry="18"/>
<text text-anchor="middle" x="203" y="-112.05" font-family="Times-Roman" font-size="14.00">7</text>
</g>
<!-- 2&#45;&gt;7 -->
<g id="edge6" class="edge">
<title>2&#45;&gt;7</title>
<path fill="none" stroke="black" d="M130.16,-115.75C142.72,-115.75 160.02,-115.75 174.5,-115.75"/>
<polygon fill="black" stroke="black" points="174.89,-119.25 184.89,-115.75 174.89,-112.25 174.89,-119.25"/>
<text text-anchor="middle" x="157.5" y="-119.55" font-family="Times-Roman" font-size="14.00">u:u</text>
</g>
<!-- 8 -->
<g id="node8" class="node">
<title>8</title>
<ellipse fill="none" stroke="black" cx="471.5" cy="-112.75" rx="18" ry="18"/>
<text text-anchor="middle" x="471.5" y="-109.05" font-family="Times-Roman" font-size="14.00">8</text>
</g>
<!-- 3&#45;&gt;8 -->
<g id="edge7" class="edge">
<title>3&#45;&gt;8</title>
<path fill="none" stroke="black" d="M403.19,-161.44C408.92,-156.11 415.87,-149.91 422.5,-144.75 430.3,-138.66 439.23,-132.51 447.26,-127.24"/>
<polygon fill="black" stroke="black" points="449.31,-130.09 455.82,-121.73 445.52,-124.2 449.31,-130.09"/>
<text text-anchor="middle" x="430.5" y="-148.55" font-family="Times-Roman" font-size="14.00">j:j</text>
</g>
<!-- 4&#45;&gt;8 -->
<g id="edge8" class="edge">
<title>4&#45;&gt;8</title>
<path fill="none" stroke="black" d="M407.87,-105.42C417.01,-105.43 428.38,-105.7 438.5,-106.75 440.2,-106.92 441.94,-107.14 443.7,-107.39"/>
<polygon fill="black" stroke="black" points="443.19,-110.85 453.63,-109.05 444.35,-103.95 443.19,-110.85"/>
<text text-anchor="middle" x="430.5" y="-110.55" font-family="Times-Roman" font-size="14.00">t:t</text>
</g>
<!-- 10 -->
<g id="node13" class="node">
<title>10</title>
<ellipse fill="none" stroke="black" cx="295.75" cy="-115.75" rx="23" ry="23"/>
<text text-anchor="middle" x="295.75" y="-112.05" font-family="Times-Roman" font-size="14.00">10</text>
</g>
<!-- 7&#45;&gt;10 -->
<g id="edge11" class="edge">
<title>7&#45;&gt;10</title>
<path fill="none" stroke="black" d="M221.07,-115.75C232.77,-115.75 248.65,-115.75 262.68,-115.75"/>
<polygon fill="black" stroke="black" points="262.94,-119.25 272.94,-115.75 262.94,-112.25 262.94,-119.25"/>
<text text-anchor="middle" x="247" y="-119.55" font-family="Times-Roman" font-size="14.00">a:a</text>
</g>
<!-- 8&#45;&gt;14 -->
<g id="edge13" class="edge">
<title>8&#45;&gt;14</title>
<path fill="none" stroke="black" d="M488.74,-107.54C493.78,-105.96 499.36,-104.25 504.5,-102.75 514.82,-99.74 526.14,-96.62 536.3,-93.88"/>
<polygon fill="black" stroke="black" points="537.23,-97.25 545.98,-91.29 535.42,-90.49 537.23,-97.25"/>
<text text-anchor="middle" x="517.5" y="-106.55" font-family="Times-Roman" font-size="14.00">N:N</text>
</g>
<!-- 11 -->
<g id="node14" class="node">
<title>11</title>
<ellipse fill="none" stroke="black" cx="568.24" cy="-152.75" rx="23" ry="23"/>
<text text-anchor="middle" x="568.24" y="-149.05" font-family="Times-Roman" font-size="14.00">11</text>
</g>
<!-- 8&#45;&gt;11 -->
<g id="edge12" class="edge">
<title>8&#45;&gt;11</title>
<path fill="none" stroke="black" d="M488.57,-119.53C501.95,-125.18 521.36,-133.38 537.55,-140.21"/>
<polygon fill="black" stroke="black" points="536.56,-143.59 547.13,-144.26 539.28,-137.14 536.56,-143.59"/>
<text text-anchor="middle" x="517.5" y="-139.55" font-family="Times-Roman" font-size="14.00">A:A</text>
</g>
<!-- 9 -->
<g id="node10" class="node">
<title>9</title>
<ellipse fill="none" stroke="black" cx="762.74" cy="-85.75" rx="18" ry="18"/>
<text text-anchor="middle" x="762.74" y="-82.05" font-family="Times-Roman" font-size="14.00">9</text>
</g>
<!-- 5&#45;&gt;9 -->
<g id="edge9" class="edge">
<title>5&#45;&gt;9</title>
<path fill="none" stroke="black" d="M684.37,-85.75C698.26,-85.75 717.99,-85.75 734.06,-85.75"/>
<polygon fill="black" stroke="black" points="734.47,-89.25 744.47,-85.75 734.47,-82.25 734.47,-89.25"/>
<text text-anchor="middle" x="711.99" y="-89.55" font-family="Times-Roman" font-size="14.00">u:o</text>
</g>
<!-- 12 -->
<g id="node15" class="node">
<title>12</title>
<ellipse fill="none" stroke="black" cx="865.24" cy="-112.75" rx="23" ry="23"/>
<text text-anchor="middle" x="865.24" y="-109.05" font-family="Times-Roman" font-size="14.00">12</text>
</g>
<!-- 9&#45;&gt;12 -->
<g id="edge14" class="edge">
<title>9&#45;&gt;12</title>
<path fill="none" stroke="black" d="M780.33,-90.21C794.69,-94.06 815.82,-99.74 833.29,-104.43"/>
<polygon fill="black" stroke="black" points="832.5,-107.85 843.07,-107.06 834.32,-101.09 832.5,-107.85"/>
<text text-anchor="middle" x="811.99" y="-105.55" font-family="Times-Roman" font-size="14.00">n:d</text>
</g>
<!-- 15 -->
<g id="node12" class="node">
<title>15</title>
<ellipse fill="none" stroke="black" cx="762.74" cy="-26.75" rx="23" ry="23"/>
<text text-anchor="middle" x="762.74" y="-23.05" font-family="Times-Roman" font-size="14.00">15</text>
</g>
<!-- 6&#45;&gt;15 -->
<g id="edge10" class="edge">
<title>6&#45;&gt;15</title>
<path fill="none" stroke="black" d="M684.37,-30.01C697.04,-29.48 714.59,-28.74 729.76,-28.1"/>
<polygon fill="black" stroke="black" points="729.96,-31.59 739.8,-27.67 729.66,-24.6 729.96,-31.59"/>
<text text-anchor="middle" x="711.99" y="-33.55" font-family="Times-Roman" font-size="14.00">u:u</text>
</g>
<!-- 13 -->
<g id="node16" class="node">
<title>13</title>
<ellipse fill="none" stroke="black" cx="865.24" cy="-26.75" rx="22.96" ry="22.96"/>
<ellipse fill="none" stroke="black" cx="865.24" cy="-26.75" rx="27" ry="27"/>
<text text-anchor="middle" x="865.24" y="-23.05" font-family="Times-Roman" font-size="14.00">13</text>
</g>
<!-- 15&#45;&gt;13 -->
<g id="edge20" class="edge">
<title>15&#45;&gt;13</title>
<path fill="none" stroke="black" d="M785.55,-26.75C798,-26.75 813.92,-26.75 828.18,-26.75"/>
<polygon fill="black" stroke="black" points="828.2,-30.25 838.2,-26.75 828.2,-23.25 828.2,-30.25"/>
<text text-anchor="middle" x="811.99" y="-30.55" font-family="Times-Roman" font-size="14.00">n:n</text>
</g>
<!-- 10&#45;&gt;4 -->
<g id="edge15" class="edge">
<title>10&#45;&gt;4</title>
<path fill="none" stroke="black" d="M317.02,-107.2C322.29,-105.36 328.03,-103.69 333.5,-102.75 342.47,-101.21 352.39,-101.23 361.3,-101.86"/>
<polygon fill="black" stroke="black" points="361.24,-105.37 371.53,-102.88 361.93,-98.41 361.24,-105.37"/>
<text text-anchor="middle" x="345" y="-106.55" font-family="Times-Roman" font-size="14.00">n:n</text>
</g>
<!-- 11&#45;&gt;3 -->
<g id="edge16" class="edge">
<title>11&#45;&gt;3</title>
<path fill="none" stroke="black" d="M545.43,-155.34C513.1,-159.18 452.51,-166.38 417.45,-170.55"/>
<polygon fill="black" stroke="black" points="416.96,-167.08 407.44,-171.73 417.79,-174.03 416.96,-167.08"/>
<text text-anchor="middle" x="471.5" y="-169.55" font-family="Times-Roman" font-size="14.00">d:d</text>
</g>
<!-- 12&#45;&gt;14 -->
<g id="edge17" class="edge">
<title>12&#45;&gt;14</title>
<path fill="none" stroke="black" d="M842.29,-115.94C836.21,-116.69 829.61,-117.37 823.49,-117.75 813.28,-118.37 810.71,-117.92 800.49,-117.75 732.68,-116.64 715.39,-120.23 647.99,-112.75 629.11,-110.65 623.95,-110.95 605.99,-104.75 603.1,-103.75 600.15,-102.55 597.24,-101.26"/>
<polygon fill="black" stroke="black" points="598.76,-98.1 588.23,-96.89 595.7,-104.4 598.76,-98.1"/>
<text text-anchor="middle" x="711.99" y="-120.55" font-family="Times-Roman" font-size="14.00">N:N</text>
</g>
</g>
</svg>
